<?xml version="1.0" encoding="utf-8"?>
<!-- Generator: Adobe Illustrator 16.0.0, SVG Export Plug-In . SVG Version: 6.00 Build 0)  -->
<!DOCTYPE svg PUBLIC "-//W3C//DTD SVG 1.1//EN" "http://www.w3.org/Graphics/SVG/1.1/DTD/svg11.dtd">
<svg version="1.1" id="Layer_1" xmlns="http://www.w3.org/2000/svg" xmlns:xlink="http://www.w3.org/1999/xlink" x="0px" y="0px"
	 width="1000px" height="1000px" viewBox="0 0 1000 1000" enable-background="new 0 0 1000 1000" xml:space="preserve">
<rect x="-13.295" y="-12.321" fill="#1A1A1A" stroke="#000000" stroke-miterlimit="10" width="1025.615" height="1025.616"/>
<g>
	<ellipse fill="#333333" stroke="#000000" stroke-miterlimit="10" cx="415.148" cy="317.685" rx="69.119" ry="67.928"/>
	<path fill="#3C3C3C" stroke="#000000" stroke-miterlimit="10" d="M614.49,325.063l34.264-34.266
		c-14.943-20.544-21.21-45.591-18.686-69.876l-50.675-13.437c-5.592-7.979-10.896-15.528-18.896-22.593V133.49
		c-25-3.96-46.823-17.24-62.209-36.2l-48.573,28.203c-7.48-1.287-15.002-2.157-22.745-2.604L388.21,84.078
		c-20.544,14.943-45.566,21.211-69.853,18.684L304.303,155.4c-7.483,4.901-14.591,10.1-21.312,16.1h-52.036
		c-3.96,25-17.24,47.242-36.2,62.627l25.121,43.454c-2.269,10.616-3.646,21.552-4.068,32.727l-34.264,34.263
		c14.942,20.543,21.211,45.591,18.683,69.876l50.028,13.438c5.592,7.978,12.245,15.524,18.245,22.591v51.404
		c25,3.959,47.474,17.237,62.856,36.197l48.902-28.202c7.479,1.285,15.162,2.155,22.901,2.604l38.843,38.811
		c20.543-14.941,45.604-21.211,69.89-18.684l14.08-52.323c7.482-4.897,14.609-10.782,21.331-15.782h52.036
		c3.96-25,17.238-47.558,36.199-62.939l-25.12-43.612C612.688,347.331,614.064,336.235,614.49,325.063z M415.149,470.496
		c-12.188,0-24.039-1.435-35.401-4.131l36.487-63.199c13.943-0.175,27.077-3.683,38.651-9.771l63.688,36.771
		C491.36,455.202,455.041,470.496,415.149,470.496z M415.149,164.873c11.508,0,22.715,1.281,33.496,3.692l-36.773,63.691
		c-13.173,0.498-25.58,3.972-36.572,9.772l-63.657-36.751C338.864,180.197,375.214,164.873,415.149,164.873z M564.046,352.194
		l-63.441-36.628c-0.341-13.978-4.008-27.125-10.281-38.664l36.604-63.4c25.451,27.297,41.031,63.917,41.031,104.185
		C567.959,329.553,566.607,341.104,564.046,352.194z M415.149,369.127c-28.411,0-51.443-23.03-51.443-51.441
		c0-28.412,23.032-51.443,51.443-51.443s51.442,23.032,51.442,51.443S443.56,369.127,415.149,369.127z M266.227,283.285
		l63.47,36.646c0.339,13.141,3.638,25.539,9.263,36.559l-36.921,63.948c-24.665-27.14-39.699-63.188-39.699-102.751
		C262.337,305.855,263.683,294.341,266.227,283.285z"/>
	<path fill="#666666" stroke="#000000" stroke-miterlimit="10" d="M869.223,709.974l12.539-46.805
		c-23.212-10.319-41.164-28.88-51.116-51.176l-50.249,13.497c-8.832-4.111-17.961-7.561-27.305-10.321l-25.702-44.52
		c-23.712,9.116-49.526,8.688-72.329-0.04l-28.146,48.816c-7.121,2.625-14.158,5.684-21.088,9.167l-53.016-14.205
		c-10.319,23.212-28.877,41.165-51.174,51.118l14.135,52.626c-4.029,7.984-7.504,16.21-10.415,24.608l-45.063,26.02
		c9.116,23.712,8.688,49.525-0.039,72.332l43.479,25.067c3.346,10.327,7.619,20.484,12.838,30.372l-12.541,46.806
		c23.211,10.318,41.165,28.878,51.117,51.174l50.252-13.495c8.832,4.111,17.957,7.56,27.302,10.321l25.702,44.519
		c23.711-9.118,49.525-8.688,72.331,0.038l28.146-48.815c7.116-2.625,14.154-5.683,21.084-9.168l53.017,14.206
		c10.319-23.212,28.878-41.163,51.173-51.116l-14.135-52.629c4.031-7.983,7.504-16.209,10.412-24.605l45.064-26.021
		c-9.115-23.711-8.688-49.526,0.039-72.329l-43.479-25.068C878.714,730.02,874.439,719.86,869.223,709.974z M768.764,935.867
		c-10.555,6.095-22.264,10.502-33.264,13.851V876.74c12-7.124,22.687-16.24,29.666-27.24h73.541
		C827.655,884.5,803.313,915.921,768.764,935.867z M616.068,670.834c9.966-5.754,19.433-10.168,30.433-13.47v73.546
		c-12,7.02-19.321,16.592-25.94,26.592h-73.506C558.088,722.5,581.485,690.803,616.068,670.834z M839.103,758.5h-73.258
		c-7.283-12-18.345-21.297-29.345-28.149v-73.21c36,10.914,68.047,34.741,88.182,69.613
		C830.613,737.031,835.774,747.5,839.103,758.5z M718.617,847.806c-24.604,14.205-56.065,5.771-70.271-18.83
		c-14.206-24.606-5.773-56.067,18.831-70.272c24.604-14.204,56.064-5.775,70.271,18.829
		C751.653,802.137,743.223,833.6,718.617,847.806z M546.728,848.5h73.287c6.866,11,14.485,19.724,24.485,26.453v73.843
		c-34-11.171-65.069-34.583-84.852-68.849C553.736,869.703,550.053,859.5,546.728,848.5z"/>
	<path fill="#B3B3B3" stroke="#000000" stroke-miterlimit="10" d="M252.842,377.556c-123.79,0-224.141,100.352-224.141,224.142
		c0,123.789,100.352,224.143,224.141,224.143c123.79,0,224.141-100.354,224.141-224.143
		C476.982,477.908,376.632,377.556,252.842,377.556z M390.067,504.137l-58.827,33.939c-15.385-18.96-37.738-32.238-62.738-36.197
		v-67.855C318.5,438.688,362.409,465.286,390.067,504.137z M252.842,644.529c-23.656,0-42.833-19.177-42.833-42.831
		c0-23.655,19.177-42.833,42.833-42.833c23.655,0,42.832,19.178,42.832,42.833S276.497,644.529,252.842,644.529z M236.5,434.024
		v67.855c-25,3.846-45.773,16.48-61.088,34.574l-59.04-34.008C144.085,464.519,186.5,438.619,236.5,434.024z M100.602,529.602
		l58.675,33.876c-4.82,11.791-7.484,24.693-7.484,38.221c0,11.267,1.845,22.1,5.247,32.217L97.989,668.01
		c-8.727-20.353-13.563-42.766-13.563-66.311C84.424,575.898,90.233,551.457,100.602,529.602z M112.431,695.764l58.24-33.824
		c14.631,19.672,35.829,33.838,60.829,38.833v68.16C183.5,763.049,139.176,735.409,112.431,695.764z M263.5,769.709v-67.633
		c26-3.009,49.883-16.054,66.062-35.196l58.654,34.005C359.729,739.907,314.5,766.217,263.5,769.709z M405.115,673.721
		l-58.678-33.879c4.801-11.771,7.455-24.646,7.455-38.146c0-12.784-2.38-25.01-6.71-36.268l58.782-33.938
		c9.813,21.373,15.295,45.147,15.295,70.206C421.259,627.469,415.463,651.885,405.115,673.721z"/>
	<circle fill="#333333" stroke="#000000" stroke-miterlimit="10" cx="252.842" cy="601.698" r="46.251"/>
	<circle fill="#333333" stroke="#000000" stroke-miterlimit="10" cx="176.305" cy="727.168" r="55.034"/>
	<circle fill="#333333" stroke="#000000" stroke-miterlimit="10" cx="-106.003" cy="567.821" r="55.034"/>
	<path fill="#808080" stroke="#000000" stroke-miterlimit="10" d="M323.114,592.404l0.353-48.453
		c-25.063-4.143-47.11-17.582-62.356-36.651l-45.229,25.715c-9.583-1.757-19.286-2.794-29.025-3.114l-36.083-36.612
		c-20.65,14.794-45.743,20.88-70.008,18.176l-14.946,54.331c-6.229,4.334-12.271,9.064-18.099,14.182l-54.885-0.396
		c-4.144,25.063-17.58,47.109-36.653,62.357l26.932,47.371c-1.889,8.742-3.18,17.576-3.882,26.438l-37.061,36.526
		c14.795,20.652,20.879,45.744,18.175,70.01l48.393,13.313c5.84,9.15,12.532,17.904,20.074,26.162l-0.354,48.451
		c25.063,4.144,47.11,17.582,62.355,36.652l45.235-25.716c9.582,1.758,19.281,2.797,29.02,3.116l36.083,36.608
		c20.651-14.794,45.743-20.88,70.012-18.176l14.944-54.332c6.229-4.33,12.271-9.063,18.098-14.182l54.886,0.397
		c4.143-25.062,17.582-47.106,36.651-62.354l-26.933-47.375c1.891-8.741,3.181-17.576,3.881-26.438l37.063-36.526
		c-14.794-20.648-20.88-45.742-18.179-70.008l-48.392-13.313C337.348,609.415,330.654,600.659,323.114,592.404z M282.516,836.109
		c-8.68,8.555-18.743,16.002-28.83,22.086l-18.375-70.625c10.351-10.055,18.19-21.76,22.104-34.442l71.173-18.521
		C326.734,771.388,310.928,808.104,282.516,836.109z M68.014,618.276c8.196-8.079,16.958-14.854,25.84-20.58l18.521,71.176
		c-9.16,9.637-14.096,20.645-17.976,32.025l-71.136,18.51C25.097,682.631,39.573,646.308,68.014,618.276z M306.217,647.078
		l-70.896,18.448c-10.208-10.31-23.005-16.156-35.657-19.945l-18.437-70.851c37.961,1.4,74.688,16.531,102.956,45.21
		C292.511,628.395,300.154,636.989,306.217,647.078z M212.073,763.719c-20.232,19.94-52.808,19.706-72.75-0.527
		c-19.942-20.236-19.705-52.808,0.528-72.749c20.233-19.939,52.809-19.71,72.75,0.525
		C232.542,711.202,232.306,743.775,212.073,763.719z M45.697,806.915l70.928-18.453c9.485,9.2,19.398,16.142,30.809,20.13
		l18.594,71.461c-35.597-2.279-71.905-17.431-99.678-45.608C58.045,826.017,51.76,817.009,45.697,806.915z"/>
	<circle fill="#333333" stroke="#000000" stroke-miterlimit="10" cx="136.605" cy="154.573" r="57.016"/>
	<path fill="#E6E6E6" stroke="#000000" stroke-miterlimit="10" d="M45.903,1097.119c25.595,119.924,143.561,196.396,263.482,170.803
		c119.922-25.595,196.393-143.56,170.8-263.48c-25.593-119.924-143.558-196.393-263.479-170.8
		C96.781,859.232,20.31,977.196,45.903,1097.119z M140.135,937.892l45.031,49.916c-15.188,18.824-23.25,44.071-22.11,68.205
		l-65.735,14.027C91.625,1021.222,108.216,972.719,140.135,937.892z M304.536,1041.926c4.892,22.918-9.723,45.46-32.638,50.35
		c-22.917,4.893-45.458-9.721-50.349-32.639c-4.89-22.916,9.722-45.459,32.638-50.351
		C277.104,1004.396,299.647,1019.01,304.536,1041.926z M104.13,1101.943l65.732-14.025c8.44,21.289,25.36,40.602,46.056,51.696
		l-20.704,64.394C152.742,1185.002,119.055,1150.078,104.13,1101.943z M224.674,1213.171l20.688-63.848
		c12.419,2.235,25.471,2.147,38.575-0.647c10.912-2.328,21.026-6.356,30.124-11.743l45.237,50.154
		c-17.91,12.661-38.624,21.982-61.436,26.851C272.87,1219.271,247.992,1218.697,224.674,1213.171z M383.149,1167.107l-44.833-49.549
		c16.032-18.239,25.153-42.734,25.016-67.082l66.031-14.091C433.872,1085.459,416.027,1133.01,383.149,1167.107z M423.568,1005.55
		l-65.521,13.98c-8.413-25.146-25.848-44.921-47.74-56.635l20.809-63.897C374.812,918.531,409.707,957.188,423.568,1005.55z
		 M301.336,888.37l-20.689,63.854c-12.396-2.218-25.417-2.129-38.494,0.663c-12.384,2.643-23.733,7.478-33.747,13.997l-45.03-49.93
		c18.677-13.927,40.576-24.147,64.851-29.328C253.192,882.297,278.041,882.863,301.336,888.37z"/>
	<path fill="#E6E6E6" stroke="#000000" stroke-miterlimit="10" d="M-327.559,579.105c6.479,122.451,110.998,216.467,233.451,209.991
		C28.343,782.619,122.36,678.1,115.883,555.646c-6.479-122.453-110.998-216.467-233.449-209.99
		C-240.019,352.135-334.037,456.652-327.559,579.105z M-209.531,436.617l36.649,56.358c-17.949,16.211-29.871,39.882-32.528,63.896
		l-67.121,3.552C-270.505,511.313-246.514,466.01-209.531,436.617z M-63.469,565.135c1.237,23.399-16.729,43.372-40.128,44.61
		c-23.398,1.239-43.373-16.729-44.607-40.13c-1.237-23.396,16.727-43.373,40.127-44.608
		C-84.681,523.77-64.707,541.736-63.469,565.135z M-270.808,592.997l67.121-3.548c4.998,22.352,18.684,44.073,37.381,58.277
		l-30.542,60.349C-235.817,682.648-263.613,642.879-270.808,592.997z M-169.189,721.744l30.44-59.813
		c11.916,4.154,24.815,6.112,38.2,5.405c11.142-0.592,21.763-2.981,31.592-6.875l36.813,56.624
		c-19.673,9.696-41.593,15.656-64.884,16.889C-122.546,735.325-147.026,730.858-169.189,721.744z M-5.454,701.094l-36.512-55.964
		c18.691-15.501,31.541-38.267,35.223-62.332l67.423-3.566C57.444,628.405,32.364,672.569-5.454,701.094z M59.792,547.867
		l-66.903,3.539c-4.366-26.152-18.485-48.418-38.271-63.419l30.566-59.844C25.279,454.283,53.684,497.932,59.792,547.867z
		 M-42.561,412.978l-30.44,59.818c-11.896-4.136-24.771-6.086-38.122-5.379c-12.646,0.668-24.614,3.662-35.523,8.532l-36.647-56.371
		c20.629-10.827,43.857-17.49,68.646-18.801C-89.157,399.43-64.705,403.887-42.561,412.978z"/>
	<path fill="#999999" stroke="#000000" stroke-miterlimit="10" d="M-84.845,154.815c0.131,122.623,99.645,221.923,222.269,221.795
		c122.622-0.131,221.923-99.645,221.794-222.267C359.086,31.719,259.572-67.58,136.951-67.448
		C14.327-67.32-84.976,32.191-84.845,154.815z M40.4,18.627l33.685,58.182c-18.766,15.261-31.896,38.28-35.792,62.126l-67.215,0.069
		C-24.359,90.066,1.945,46.065,40.4,18.627z M179.613,154.534c0.024,23.436-18.949,42.449-42.383,42.478
		c-23.433,0.024-42.449-18.952-42.472-42.388c-0.025-23.431,18.95-42.446,42.382-42.473
		C160.571,112.127,179.589,131.103,179.613,154.534z M-28.891,171.626l67.217-0.067c3.834,22.579,16.375,44.98,34.313,60.134
		L39.013,290.38C1.413,262.969-24.287,221.812-28.891,171.626z M65.928,305.461l33.496-58.155
		c11.685,4.765,24.468,7.389,37.869,7.375c11.158-0.014,21.888-1.853,31.903-5.23l33.837,58.454
		c-20.149,8.667-42.35,13.484-65.673,13.507C111.806,321.438,87.588,315.711,65.928,305.461z M230.513,293.315l-33.566-57.78
		c19.473-14.513,33.48-36.58,38.402-60.424l67.517-0.072C297.088,223.98,269.756,266.786,230.513,293.315z M303.603,143.67
		l-66.997,0.071c-3.006-26.344-15.954-49.31-34.938-65.313l33.625-58.184C273.981,48.427,300.088,93.486,303.603,143.67z
		 M208.371,3.664l-33.499,58.162c-11.666-4.743-24.419-7.36-37.792-7.345c-12.664,0.013-24.771,2.385-35.918,6.684L67.48,2.973
		c21.162-9.745,44.706-15.197,69.528-15.225C162.537-12.278,186.727-6.561,208.371,3.664z"/>
	<path fill="#CCCCCC" stroke="#000000" stroke-miterlimit="10" d="M584.273,286.205C477.067,348.1,440.335,485.184,502.231,592.388
		c61.896,107.205,198.977,143.936,306.184,82.041c107.205-61.896,143.936-198.979,82.039-306.183
		C828.56,261.041,691.477,224.309,584.273,286.205z M766.455,327.183l-33.946,58.792c-22.807-8.729-48.695-9.114-72.407,0.005
		l-33.929-58.767C671.97,306.16,723.08,307.365,766.455,327.183z M717.759,517.41c-20.486,11.826-46.683,4.811-58.512-15.678
		c-11.825-20.486-4.809-46.683,15.681-58.509c20.482-11.829,46.682-4.811,58.51,15.677
		C745.265,479.385,738.244,505.581,717.759,517.41z M599.009,342.899l33.928,58.765c-19.813,15.877-31.729,37.351-35.942,60.678
		l-67.972-0.027C534.061,415.61,557.841,371.973,599.009,342.899z M528.449,494.5h67.754c1.72,12,5.861,24.88,12.625,36.594
		c5.636,9.756,12.647,18.09,20.654,25.15L595.39,615.23c-17.732-13.26-33.13-30.031-44.902-50.423
		C537.59,542.467,530.4,518.5,528.449,494.5z M622.096,631.802l33.686-58.505c22.506,9.722,48.024,11.347,72.256,3.124l34.08,59.025
		C716.796,654.818,665.079,652.764,622.096,631.802z M789.669,620.436l-33.815-58.569c21.313-15.781,35.129-38.817,39.564-63.487
		l67.82,0.107C858.082,546.527,832.474,591.689,789.669,620.436z M864.229,466.5H796.47c-1.728-12-5.864-25.045-12.613-36.733
		c-6.392-11.072-14.565-20.457-23.947-28.041l33.938-58.774c19.186,13.603,35.82,31.425,48.35,53.128
		C855.082,418.396,862.271,442.5,864.229,466.5z"/>
	<g>
		<path fill="#999999" d="M196.215,758.521l-63.071-36.41c-24.011,29.686-57.934,48.523-94.17,54.303l0.046,78.195
			c-9.408,11.222-17.962,23.131-25.606,35.622l-74.625,19.996c4.013,37.97-6.653,75.28-28.192,104.987l59.917,59.847
			c1.042,11.359,2.743,22.767,5.106,34.179l-41.244,71.438c29.683,24.01,48.526,57.936,54.303,94.175l81.898-0.05
			c10.024,8.956,20.61,17.198,31.675,24.691l20.241,75.539c37.969-4.012,75.277,6.653,104.988,28.193l53.309-53.369
			c16.294-0.84,32.699-3.092,49.084-6.824l63.068,36.413c24.01-29.685,57.938-48.521,94.172-54.303l-0.044-78.2
			c9.406-11.219,17.958-23.129,25.605-35.617l74.625-19.995c-4.015-37.971,6.651-75.279,28.191-104.987l-59.92-59.851
			c-1.042-11.354-2.743-22.764-5.104-34.176l41.247-71.438c-29.688-24.011-48.528-57.938-54.306-94.176l-81.898,0.051
			c-10.025-8.954-20.612-17.198-31.673-24.688l-20.243-75.547c-37.967,4.012-75.278-6.653-104.987-28.191l-53.308,53.368
			C229.009,752.539,212.6,754.791,196.215,758.521z M504.11,1004.014c6.161,23.001,9.447,46.091,10.108,68.896l-137.727-36.899
			c-7.383-26.227-20.644-49.236-37.983-68.004l37.188-138.788C436.703,867.926,483.935,928.724,504.11,1004.014z M22.932,1097.584
			c-5.818-21.718-9.068-43.519-9.968-65.084l138.796,37.194c7.601,24.61,20.427,46.267,36.939,64.079l-37.171,138.721
			C90.432,1233.803,43.127,1172.948,22.932,1097.584z M282.715,800.524l-37.046,138.252c-26.203,7.713-49.165,21.281-67.769,38.952
			L39.74,940.716c38.645-61.844,99.873-109.768,175.866-130.127C238.007,804.588,260.489,801.301,282.715,800.524z M337.724,1030.77
			c11.051,41.243-13.427,83.638-54.669,94.69c-41.246,11.052-83.64-13.427-94.69-54.673c-11.054-41.243,13.425-83.638,54.671-94.688
			C284.278,965.049,326.674,989.523,337.724,1030.77z M243.043,1298.806l37.06-138.313c24.627-7.281,46.358-19.774,64.312-35.965
			l139.354,37.34c-38.739,60.273-99.174,106.88-173.837,126.885C287.607,1294.732,265.193,1298.018,243.043,1298.806z"/>
		<path fill="none" stroke="#000000" stroke-miterlimit="10" d="M196.215,758.521l-63.071-36.41
			c-24.011,29.686-57.934,48.523-94.17,54.303l0.046,78.195c-9.408,11.222-17.962,23.131-25.606,35.622l-74.625,19.996
			c4.013,37.97-6.653,75.28-28.192,104.987l59.917,59.847c1.042,11.359,2.743,22.767,5.106,34.179l-41.244,71.438
			c29.683,24.01,48.526,57.936,54.303,94.175l81.898-0.05c10.024,8.956,20.61,17.198,31.675,24.691l20.241,75.539
			c37.969-4.012,75.277,6.653,104.988,28.193l53.309-53.369c16.294-0.84,32.699-3.092,49.084-6.824l63.068,36.413
			c24.01-29.685,57.938-48.521,94.172-54.303l-0.044-78.2c9.406-11.219,17.958-23.129,25.605-35.617l74.625-19.995
			c-4.015-37.971,6.651-75.279,28.191-104.987l-59.92-59.851c-1.042-11.354-2.743-22.764-5.104-34.176l41.247-71.438
			c-29.688-24.011-48.528-57.938-54.306-94.176l-81.898,0.051c-10.025-8.954-20.612-17.198-31.673-24.688l-20.243-75.547
			c-37.967,4.012-75.278-6.653-104.987-28.191l-53.308,53.368C229.009,752.539,212.6,754.791,196.215,758.521z M504.11,1004.014
			c6.161,23.001,9.447,46.091,10.108,68.896l-137.727-36.899c-7.383-26.227-20.644-49.236-37.983-68.004l37.188-138.788
			C436.703,867.926,483.935,928.724,504.11,1004.014z M22.932,1097.584c-5.818-21.718-9.068-43.519-9.968-65.084l138.796,37.194
			c7.601,24.61,20.427,46.267,36.939,64.079l-37.171,138.721C90.432,1233.803,43.127,1172.948,22.932,1097.584z M282.715,800.524
			l-37.046,138.252c-26.203,7.713-49.165,21.281-67.769,38.952L39.74,940.716c38.645-61.844,99.873-109.768,175.866-130.127
			C238.007,804.588,260.489,801.301,282.715,800.524z M337.724,1030.77c11.051,41.243-13.427,83.638-54.669,94.69
			c-41.246,11.052-83.64-13.427-94.69-54.673c-11.054-41.243,13.425-83.638,54.671-94.688
			C284.278,965.049,326.674,989.523,337.724,1030.77z M243.043,1298.806l37.06-138.313c24.627-7.281,46.358-19.774,64.312-35.965
			l139.354,37.34c-38.739,60.273-99.174,106.88-173.837,126.885C287.607,1294.732,265.193,1298.018,243.043,1298.806z"/>
		<path fill="#999999" d="M196.215,758.521l-63.071-36.41c-24.011,29.686-57.934,48.523-94.17,54.303l0.046,78.195
			c-9.408,11.222-17.962,23.131-25.606,35.622l-74.625,19.996c4.013,37.97-6.653,75.28-28.192,104.987l59.917,59.847
			c1.042,11.359,2.743,22.767,5.106,34.179l-41.244,71.438c29.683,24.01,48.526,57.936,54.303,94.175l81.898-0.05
			c10.024,8.956,20.61,17.198,31.675,24.691l20.241,75.539c37.969-4.012,75.277,6.653,104.988,28.193l53.309-53.369
			c16.294-0.84,32.699-3.092,49.084-6.824l63.068,36.413c24.01-29.685,57.938-48.521,94.172-54.303l-0.044-78.2
			c9.406-11.219,17.958-23.129,25.605-35.617l74.625-19.995c-4.015-37.971,6.651-75.279,28.191-104.987l-59.92-59.851
			c-1.042-11.354-2.743-22.764-5.104-34.176l41.247-71.438c-29.688-24.011-48.528-57.938-54.306-94.176l-81.898,0.051
			c-10.025-8.954-20.612-17.198-31.673-24.688l-20.243-75.547c-37.967,4.012-75.278-6.653-104.987-28.191l-53.308,53.368
			C229.009,752.539,212.6,754.791,196.215,758.521z M504.11,1004.014c6.161,23.001,9.447,46.091,10.108,68.896l-137.727-36.899
			c-7.383-26.227-20.644-49.236-37.983-68.004l37.188-138.788C436.703,867.926,483.935,928.724,504.11,1004.014z M22.932,1097.584
			c-5.818-21.718-9.068-43.519-9.968-65.084l138.796,37.194c7.601,24.61,20.427,46.267,36.939,64.079l-37.171,138.721
			C90.432,1233.803,43.127,1172.948,22.932,1097.584z M282.715,800.524l-37.046,138.252c-26.203,7.713-49.165,21.281-67.769,38.952
			L39.74,940.716c38.645-61.844,99.873-109.768,175.866-130.127C238.007,804.588,260.489,801.301,282.715,800.524z M337.724,1030.77
			c11.051,41.243-13.427,83.638-54.669,94.69c-41.246,11.052-83.64-13.427-94.69-54.673c-11.054-41.243,13.425-83.638,54.671-94.688
			C284.278,965.049,326.674,989.523,337.724,1030.77z M243.043,1298.806l37.06-138.313c24.627-7.281,46.358-19.774,64.312-35.965
			l139.354,37.34c-38.739,60.273-99.174,106.88-173.837,126.885C287.607,1294.732,265.193,1298.018,243.043,1298.806z"/>
	</g>
	<circle fill="#333333" stroke="#000000" stroke-miterlimit="10" cx="696.343" cy="480.316" r="44.405"/>
	<path fill="#E6E6E6" stroke="#000000" stroke-miterlimit="10" d="M341.639,803.707c0,193.778,157.089,350.865,350.867,350.865
		c193.774,0,350.863-157.087,350.863-350.865c0-193.775-157.089-350.863-350.863-350.863
		C498.728,452.844,341.639,609.93,341.639,803.707z M539.783,589.05l53.131,92.165c-29.68,24.081-50.467,60.285-56.662,98.285
		H430.031C437.332,701.5,478.97,632.342,539.783,589.05z M759.553,803.707c0,37.031-30.021,67.051-67.047,67.051
		c-37.029,0-67.05-30.02-67.05-67.051c0-37.026,30.021-67.048,67.05-67.048C729.532,736.659,759.553,766.679,759.553,803.707z
		 M430.031,829.5h106.221c6.018,37,25.801,71.549,54.123,95.521l-53.234,92.473C477.769,974.11,437.226,908.5,430.031,829.5z
		 M579.647,1042.02l53.029-91.848c18.457,7.548,38.651,11.719,59.829,11.719c17.635,0,34.592-2.89,50.431-8.215l53.369,92.434
		c-31.856,13.66-66.942,21.234-103.8,21.234C652.117,1067.344,613.86,1058.252,579.647,1042.02z M839.756,1023.193l-52.948-91.318
		c30.793-22.902,52.969-56.375,60.787-95.375h106.693C945.076,913.5,901.815,981.33,839.756,1023.193z M955.505,787.5H849.636
		c-4.71-41-25.129-78.324-55.102-103.648l53.231-91.697C908.855,636.746,950.035,707.5,955.505,787.5z M805.247,565.343
		l-53.031,91.854c-18.429-7.517-38.58-11.67-59.71-11.67c-20.013,0-39.148,3.729-56.771,10.503l-53.127-92.015
		c33.457-15.362,70.673-23.942,109.898-23.942C732.846,540.07,771.064,549.145,805.247,565.343z"/>
	<circle fill="#333333" stroke="#000000" stroke-miterlimit="10" cx="692.505" cy="803.707" r="69.573"/>
	<circle fill="#333333" stroke="#000000" stroke-miterlimit="10" cx="263.044" cy="1050.78" r="78.595"/>
</g>
<linearGradient id="SVGID_1_" gradientUnits="userSpaceOnUse" x1="173.5051" y1="109.2878" x2="429.3517" y2="1085.769" gradientTransform="matrix(1 0 0 -1 202.3999 1080.0991)">
	<stop  offset="0" style="stop-color:#000000;stop-opacity:0.3"/>
	<stop  offset="0.9516" style="stop-color:#000000"/>
</linearGradient>
<rect x="-21.5" y="-19.5" fill="url(#SVGID_1_)" width="1041" height="1041"/>
<g>
	<g>
		<path fill="#1D1D1D" d="M20.478,34.082c22.28-3.713,51.456-6.896,88.59-6.896c45.619,0,79.04,10.608,100.259,29.706
			c19.626,16.975,31.296,42.968,31.296,74.796c0,32.357-9.547,57.82-27.584,76.388c-24.401,25.992-64.187,39.254-109.276,39.254
			c-13.791,0-26.523-0.531-37.132-3.184v143.226H20.48L20.478,34.082L20.478,34.082z M66.629,206.485
			c10.08,2.652,22.81,3.713,38.193,3.713c55.698,0,89.649-27.053,89.649-76.387c0-47.211-33.42-70.021-84.345-70.021
			c-20.157,0-35.542,1.59-43.499,3.715L66.629,206.485L66.629,206.485z"/>
		<path fill="#1D1D1D" d="M322.906,137.09v104.719h121.058V137.09h32.679v250.285h-32.679V270.031H322.906v117.344h-32.308V137.09
			H322.906z"/>
		<path fill="#1D1D1D" d="M573.185,308.65l-25.994,78.725h-33.422l85.036-250.286h38.99l85.408,250.285H688.67l-26.737-78.726
			h-88.748V308.65z M655.247,283.4l-24.509-72.04c-5.569-16.339-9.281-31.193-12.996-45.676H617
			c-3.715,14.854-7.798,30.08-12.627,45.303L579.866,283.4H655.247z"/>
		<path fill="#1D1D1D" d="M792.275,137.09v250.285h-32.308V137.09H792.275z"/>
		<path fill="#1D1D1D" d="M844.258,348.011c14.48,8.912,35.647,16.341,57.927,16.341c33.05,0,52.36-17.455,52.36-42.705
			c0-23.395-13.368-36.764-47.16-49.758c-40.85-14.483-66.1-35.649-66.1-70.927c0-38.991,32.308-67.956,80.953-67.956
			c25.62,0,44.189,5.941,55.329,12.254l-8.912,26.365c-8.17-4.456-24.88-11.882-47.532-11.882
			c-34.161,0-47.159,20.425-47.159,37.505c0,23.395,15.226,34.907,49.761,48.276c42.333,16.336,63.872,36.761,63.872,73.524
			c0,38.62-28.597,72.04-87.64,72.04c-24.138,0-50.502-7.056-63.869-15.97L844.258,348.011z"/>
	</g>
	<g>
		
			<linearGradient id="SVGID_2_" gradientUnits="userSpaceOnUse" x1="-390.3953" y1="42.6218" x2="-170.2498" y2="42.6218" gradientTransform="matrix(1 0 0 1 404.7998 159.1992)">
			<stop  offset="0" style="stop-color:#FFFFFF"/>
			<stop  offset="1" style="stop-color:#A6A6A6"/>
		</linearGradient>
		<path fill="url(#SVGID_2_)" d="M14.405,28.622c22.28-3.713,51.456-6.895,88.589-6.895c45.62,0,79.04,10.608,100.258,29.706
			c19.628,16.974,31.299,42.968,31.299,74.796c0,32.357-9.549,57.82-27.587,76.388c-24.399,25.992-64.187,39.254-109.275,39.254
			c-13.79,0-26.522-0.531-37.132-3.183v143.227h-46.15L14.405,28.622L14.405,28.622z M60.555,201.026
			c10.079,2.651,22.81,3.713,38.192,3.713c55.699,0,89.647-27.054,89.647-76.387c0-47.212-33.417-70.022-84.342-70.022
			c-20.157,0-35.542,1.591-43.499,3.714L60.555,201.026L60.555,201.026z"/>
		
			<linearGradient id="SVGID_3_" gradientUnits="userSpaceOnUse" x1="-120.2761" y1="97.573" x2="65.7678" y2="97.573" gradientTransform="matrix(1 0 0 1 404.7998 159.1992)">
			<stop  offset="0" style="stop-color:#FFFFFF"/>
			<stop  offset="1" style="stop-color:#A6A6A6"/>
		</linearGradient>
		<path fill="url(#SVGID_3_)" d="M316.832,131.63v104.72h121.057V131.63h32.679v250.285h-32.679V264.57H316.832v117.345h-32.309
			V131.63H316.832z"/>
		
			<linearGradient id="SVGID_4_" gradientUnits="userSpaceOnUse" x1="102.8958" y1="97.574" x2="312.3313" y2="97.574" gradientTransform="matrix(1 0 0 1 404.7998 159.1992)">
			<stop  offset="0" style="stop-color:#FFFFFF"/>
			<stop  offset="1" style="stop-color:#A6A6A6"/>
		</linearGradient>
		<path fill="url(#SVGID_4_)" d="M567.109,303.19l-25.991,78.726h-33.422l85.036-250.285h38.992l85.407,250.285h-34.534
			L655.86,303.19H567.109z M649.177,277.939l-24.511-72.042c-5.568-16.336-9.281-31.19-12.995-45.674h-0.743
			c-3.713,14.854-7.797,30.079-12.626,45.304l-24.506,72.412H649.177L649.177,277.939z"/>
		
			<linearGradient id="SVGID_5_" gradientUnits="userSpaceOnUse" x1="349.0901" y1="97.573" x2="381.3977" y2="97.573" gradientTransform="matrix(1 0 0 1 404.7998 159.1992)">
			<stop  offset="0" style="stop-color:#FFFFFF"/>
			<stop  offset="1" style="stop-color:#A6A6A6"/>
		</linearGradient>
		<path fill="url(#SVGID_5_)" d="M786.198,131.63v250.285H753.89V131.63H786.198z"/>
		
			<linearGradient id="SVGID_6_" gradientUnits="userSpaceOnUse" x1="425.2151" y1="97.3879" x2="576.7219" y2="97.3879" gradientTransform="matrix(1 0 0 1 404.7998 159.1992)">
			<stop  offset="0" style="stop-color:#FFFFFF"/>
			<stop  offset="1" style="stop-color:#A6A6A6"/>
		</linearGradient>
		<path fill="url(#SVGID_6_)" d="M838.184,342.552c14.48,8.911,35.648,16.339,57.928,16.339c33.049,0,52.36-17.455,52.36-42.705
			c0-23.396-13.371-36.766-47.162-49.761c-40.847-14.48-66.099-35.646-66.099-70.925c0-38.992,32.308-67.956,80.951-67.956
			c25.623,0,44.191,5.941,55.331,12.254l-8.913,26.366c-8.166-4.455-24.879-11.882-47.529-11.882
			c-34.163,0-47.16,20.425-47.16,37.506c0,23.395,15.225,34.905,49.761,48.275c42.334,16.336,63.87,36.762,63.87,73.525
			c0,38.618-28.594,72.04-87.637,72.04c-24.139,0-50.503-7.058-63.87-15.97L838.184,342.552z"/>
	</g>
</g>
</svg>
