<?xml version="1.0" encoding="utf-8"?>
<!-- Generator: Adobe Illustrator 16.0.0, SVG Export Plug-In . SVG Version: 6.00 Build 0)  -->
<!DOCTYPE svg PUBLIC "-//W3C//DTD SVG 1.1//EN" "http://www.w3.org/Graphics/SVG/1.1/DTD/svg11.dtd">
<svg version="1.1" id="Layer_1" xmlns="http://www.w3.org/2000/svg" xmlns:xlink="http://www.w3.org/1999/xlink" x="0px" y="0px"
	 width="1000px" height="500px" viewBox="0 250 1000 500" enable-background="new 0 250 1000 500" xml:space="preserve">
<rect x="2.667" y="254.625" fill="#1A1A1A" stroke="#000000" stroke-miterlimit="10" width="994.584" height="492.625"/>
<g>
	<ellipse fill="#333333" stroke="#000000" stroke-miterlimit="10" cx="435.747" cy="169.773" rx="60.803" ry="59.755"/>
	<path fill="#3C3C3C" stroke="#000000" stroke-miterlimit="10" d="M611.104,176.264l30.141-30.142
		c-13.145-18.072-18.658-40.105-16.436-61.468l-44.578-11.82c-4.918-7.02-9.584-13.66-16.621-19.875V7.741
		c-21.992-3.484-41.191-15.166-54.725-31.845l-42.73,24.81c-6.58-1.132-13.197-1.897-20.008-2.29l-34.095-34.141
		c-18.071,13.145-40.083,18.659-61.447,16.435L338.24,27.015c-6.583,4.312-12.835,8.884-18.748,14.162h-45.775
		c-3.483,21.992-15.166,41.558-31.844,55.092l22.098,38.226c-1.995,9.339-3.206,18.958-3.579,28.788l-30.141,30.14
		c13.146,18.071,18.659,40.105,16.435,61.468l44.009,11.821c4.919,7.018,10.772,13.657,16.05,19.873v45.219
		c21.992,3.483,41.762,15.165,55.294,31.843l43.019-24.81c6.579,1.131,13.337,1.897,20.146,2.291l34.168,34.141
		c18.071-13.145,40.118-18.659,61.479-16.436l12.387-46.028c6.584-4.309,12.852-9.485,18.764-13.883h45.775
		c3.484-21.992,15.166-41.835,31.846-55.367l-22.1-38.365C609.52,195.852,610.729,186.092,611.104,176.264z M435.748,304.198
		c-10.721,0-21.146-1.262-31.142-3.634l32.097-55.595c12.266-0.154,23.819-3.239,34-8.595l56.025,32.346
		C502.789,290.744,470.841,304.198,435.748,304.198z M435.748,35.348c10.124,0,19.982,1.127,29.466,3.249l-32.349,56.028
		c-11.588,0.438-22.502,3.493-32.173,8.597l-55.998-32.329C368.641,48.828,400.618,35.348,435.748,35.348z M566.731,200.131
		l-55.809-32.221c-0.301-12.295-3.525-23.861-9.045-34.012l32.201-55.772c22.389,24.013,36.094,56.227,36.094,91.648
		C570.172,180.214,568.983,190.375,566.731,200.131z M435.748,215.026c-24.993,0-45.253-20.26-45.253-45.252
		c0-24.994,20.261-45.254,45.253-45.254s45.253,20.261,45.253,45.254C481.001,194.766,460.74,215.026,435.748,215.026z
		 M304.745,139.512l55.833,32.235c0.298,11.56,3.2,22.466,8.148,32.16l-32.479,56.254c-21.698-23.874-34.923-55.586-34.923-90.388
		C301.323,159.367,302.507,149.238,304.745,139.512z"/>
	<path fill="#666666" stroke="#000000" stroke-miterlimit="10" d="M835.188,514.862l11.029-41.173
		c-20.418-9.078-36.211-25.404-44.965-45.018l-44.203,11.873c-7.77-3.617-15.801-6.651-24.02-9.08l-22.609-39.162
		c-20.859,8.02-43.568,7.643-63.627-0.036l-24.76,42.943c-6.264,2.31-12.455,5-18.549,8.064l-46.637-12.496
		c-9.078,20.419-25.402,36.212-45.018,44.968l12.436,46.294c-3.545,7.024-6.602,14.259-9.162,21.647l-39.641,22.889
		c8.02,20.858,7.641,43.567-0.035,63.629l38.249,22.052c2.943,9.085,6.703,18.02,11.293,26.718l-11.031,41.174
		c20.418,9.077,36.211,25.402,44.967,45.016l44.205-11.871c7.77,3.617,15.797,6.649,24.016,9.08l22.611,39.161
		c20.857-8.021,43.566-7.644,63.627,0.033l24.76-42.941c6.262-2.31,12.453-4.999,18.547-8.065l46.639,12.497
		c9.076-20.419,25.402-36.21,45.016-44.966l-12.436-46.297c3.547-7.023,6.602-14.259,9.16-21.646l39.643-22.89
		c-8.02-20.858-7.643-43.567,0.035-63.626l-38.248-22.053C843.535,532.496,839.776,523.558,835.188,514.862z M746.815,713.575
		c-9.283,5.36-19.584,9.238-29.26,12.183v-64.195c10.555-6.268,19.955-14.286,26.096-23.963h64.693
		C798.619,668.388,777.207,696.027,746.815,713.575z M612.492,480.43c8.766-5.062,17.094-8.944,26.77-11.849v64.696
		c-10.555,6.175-16.996,14.595-22.818,23.392h-64.662C561.489,525.881,582.071,497.998,612.492,480.43z M808.692,557.549h-64.443
		c-6.408-10.556-16.139-18.734-25.814-24.764v-64.4c31.668,9.602,59.859,30.562,77.572,61.237
		C801.223,538.663,805.762,547.872,808.692,557.549z M702.703,636.11c-21.643,12.495-49.32,5.077-61.816-16.564
		c-12.498-21.646-5.08-49.321,16.564-61.817c21.643-12.495,49.32-5.081,61.816,16.563
		C731.764,595.935,724.348,623.613,702.703,636.11z M551.496,636.719h64.469c6.039,9.677,12.742,17.35,21.539,23.271v64.957
		c-29.91-9.826-57.24-30.422-74.643-60.564C557.66,655.372,554.42,646.396,551.496,636.719z"/>
	<path fill="#B3B3B3" stroke="#000000" stroke-miterlimit="10" d="M292.97,222.441c-108.896,0-197.171,88.277-197.171,197.173
		c0,108.894,88.277,197.172,197.171,197.172c108.896,0,197.172-88.278,197.172-197.172
		C490.14,310.718,401.866,222.441,292.97,222.441z M413.684,333.792l-51.749,29.856c-13.534-16.679-33.198-28.36-55.19-31.843
		v-59.691C350.728,276.218,389.355,299.615,413.684,333.792z M292.97,457.291c-20.81,0-37.679-16.869-37.679-37.677
		c0-20.81,16.869-37.68,37.679-37.68c20.809,0,37.678,16.87,37.678,37.68C330.649,440.423,313.78,457.291,292.97,457.291z
		 M278.595,272.115v59.691c-21.992,3.383-40.266,14.499-53.738,30.415l-51.936-29.916C197.3,298.94,234.611,276.156,278.595,272.115
		z M159.048,356.193l51.615,29.8c-4.241,10.373-6.584,21.722-6.584,33.622c0,9.91,1.623,19.44,4.616,28.341l-51.945,29.99
		c-7.677-17.902-11.933-37.619-11.933-58.331C144.817,396.918,149.927,375.418,159.048,356.193z M169.454,502.362l51.232-29.755
		c12.871,17.305,31.518,29.767,53.51,34.16v59.959C231.972,561.55,192.981,537.236,169.454,502.362z M302.346,567.409v-59.495
		c22.872-2.646,43.881-14.122,58.113-30.962l51.597,29.913C386.996,541.193,347.21,564.336,302.346,567.409z M426.921,482.971
		l-51.618-29.803c4.223-10.355,6.558-21.682,6.558-33.555c0-11.246-2.093-22.001-5.902-31.904l51.709-29.855
		c8.632,18.801,13.455,39.715,13.455,61.759C441.123,442.284,436.025,463.76,426.921,482.971z"/>
	<circle fill="#333333" stroke="#000000" stroke-miterlimit="10" cx="292.97" cy="419.614" r="40.686"/>
	<circle fill="#333333" stroke="#000000" stroke-miterlimit="10" cx="225.642" cy="529.987" r="48.412"/>
	<circle fill="#333333" stroke="#000000" stroke-miterlimit="10" cx="-22.698" cy="389.813" r="48.413"/>
	<path fill="#808080" stroke="#000000" stroke-miterlimit="10" d="M354.787,411.438l0.309-42.624
		c-22.047-3.644-41.442-15.466-54.854-32.242l-39.788,22.621c-8.43-1.545-16.965-2.458-25.533-2.739l-31.742-32.207
		c-18.167,13.014-40.239,18.367-61.584,15.988l-13.148,47.794c-5.481,3.813-10.795,7.975-15.921,12.475l-48.281-0.349
		c-3.644,22.047-15.465,41.441-32.243,54.854l23.691,41.671c-1.662,7.69-2.797,15.462-3.415,23.258l-32.601,32.131
		c13.015,18.168,18.367,40.24,15.988,61.586l42.57,11.712c5.136,8.051,11.024,15.751,17.659,23.015l-0.311,42.622
		c22.047,3.645,41.443,15.467,54.854,32.242l39.792-22.622c8.429,1.547,16.961,2.461,25.528,2.742l31.741,32.204
		c18.167-13.014,40.239-18.368,61.587-15.989l13.147-47.794c5.479-3.81,10.794-7.973,15.92-12.476l48.281,0.351
		c3.644-22.046,15.467-41.439,32.242-54.852l-23.692-41.675c1.663-7.689,2.798-15.461,3.414-23.257l32.604-32.133
		c-13.014-18.163-18.367-40.238-15.991-61.583l-42.569-11.711C367.308,426.402,361.42,418.7,354.787,411.438z M319.074,625.82
		c-7.636,7.525-16.488,14.076-25.361,19.429l-16.164-62.128c9.104-8.845,16.001-19.142,19.443-30.299l62.609-16.293
		C357.971,568.886,344.067,601.184,319.074,625.82z M130.381,434.197c7.21-7.107,14.917-13.067,22.731-18.104l16.292,62.611
		c-8.058,8.477-12.399,18.16-15.812,28.172L91.015,523.16C92.628,490.807,105.362,458.856,130.381,434.197z M339.923,459.533
		l-62.366,16.229c-8.98-9.069-20.237-14.212-31.368-17.545l-16.217-62.326c33.394,1.232,65.702,14.542,90.568,39.771
		C327.866,443.098,334.589,450.658,339.923,459.533z M257.106,562.14c-17.799,17.542-46.454,17.335-63.997-0.464
		c-17.543-17.802-17.335-46.454,0.465-63.996c17.799-17.541,46.454-17.338,63.997,0.463
		C275.113,515.942,274.905,544.595,257.106,562.14z M110.749,600.138l62.393-16.233c8.345,8.094,17.065,14.199,27.102,17.707
		l16.356,62.863c-31.313-2.006-63.254-15.333-87.684-40.121C121.612,616.942,116.083,609.016,110.749,600.138z"/>
	<circle fill="#333333" stroke="#000000" stroke-miterlimit="10" cx="190.719" cy="26.288" r="50.156"/>
	<path fill="#E6E6E6" stroke="#000000" stroke-miterlimit="10" d="M110.93,855.425c22.514,105.494,126.286,172.764,231.78,150.25
		c105.492-22.514,172.763-126.285,150.249-231.777c-22.513-105.494-126.284-172.763-231.777-150.249
		C155.687,646.161,88.417,749.93,110.93,855.425z M193.824,715.356l39.613,43.91c-13.36,16.56-20.452,38.769-19.45,59.998
		l-57.826,12.34C151.152,788.66,165.746,745.991,193.824,715.356z M338.446,806.871c4.302,20.161-8.553,39.99-28.71,44.292
		c-20.16,4.303-39.989-8.552-44.291-28.712c-4.301-20.158,8.552-39.989,28.71-44.291
		C314.313,773.858,334.143,786.714,338.446,806.871z M162.152,859.668l57.824-12.338c7.425,18.728,22.309,35.716,40.514,45.477
		l-18.213,56.645C204.915,932.733,175.281,902.011,162.152,859.668z M268.192,957.511l18.198-56.164
		c10.925,1.966,22.405,1.889,33.934-0.57c9.599-2.049,18.496-5.592,26.499-10.331l39.794,44.12
		c-15.755,11.138-33.977,19.338-54.042,23.62C310.589,962.879,288.704,962.374,268.192,957.511z M407.598,916.991l-39.439-43.587
		c14.104-16.044,22.127-37.592,22.006-59.01l58.086-12.396C452.219,845.167,436.52,886.996,407.598,916.991z M443.154,774.872
		l-57.637,12.299c-7.401-22.119-22.737-39.516-41.996-49.82l18.305-56.209C400.264,698.325,430.961,732.331,443.154,774.872z
		 M335.63,671.793l-18.2,56.169c-10.904-1.95-22.358-1.872-33.862,0.584c-10.894,2.324-20.878,6.577-29.687,12.313l-39.613-43.921
		c16.43-12.251,35.694-21.243,57.048-25.8C293.278,666.449,315.137,666.948,335.63,671.793z"/>
	<path fill="#E6E6E6" stroke="#000000" stroke-miterlimit="10" d="M-217.596,399.739c5.699,107.718,97.643,190.421,205.362,184.725
		c107.718-5.698,190.422-97.641,184.725-205.361c-5.699-107.719-97.643-190.421-205.36-184.724
		C-140.589,200.078-223.294,292.02-217.596,399.739z M-113.769,274.395l32.24,49.577c-15.79,14.261-26.277,35.083-28.615,56.208
		l-59.045,3.124C-167.406,340.104-146.302,300.251-113.769,274.395z M14.718,387.45c1.088,20.584-14.715,38.154-35.299,39.244
		s-38.154-14.716-39.241-35.302c-1.088-20.582,14.714-38.154,35.299-39.242C-3.942,351.062,13.63,366.866,14.718,387.45z
		 M-167.673,411.96l59.045-3.121c4.396,19.661,16.435,38.77,32.883,51.265l-26.867,53.088
		C-136.892,490.824-161.344,455.839-167.673,411.96z M-78.281,525.216l26.778-52.616c10.482,3.654,21.83,5.377,33.604,4.755
		c9.801-0.52,19.145-2.622,27.791-6.048l32.385,49.812c-17.306,8.53-36.588,13.773-57.077,14.856
		C-37.25,537.162-58.785,533.233-78.281,525.216z M65.753,507.051l-32.119-49.23c16.443-13.636,27.746-33.661,30.985-54.832
		l59.31-3.137C121.083,443.107,99.02,481.958,65.753,507.051z M123.149,372.26l-58.854,3.113
		c-3.841-23.006-16.261-42.592-33.666-55.788l26.89-52.644C92.788,289.936,117.775,328.333,123.149,372.26z M33.111,253.601
		L6.332,306.222c-10.465-3.637-21.789-5.354-33.535-4.732c-11.125,0.588-21.652,3.223-31.249,7.507l-32.239-49.589
		c18.147-9.524,38.582-15.386,60.387-16.539C-7.879,241.683,13.632,245.604,33.111,253.601z"/>
	<path fill="#999999" stroke="#000000" stroke-miterlimit="10" d="M-4.086,26.501c0.114,107.869,87.654,195.221,195.524,195.108
		c107.868-0.115,195.22-87.654,195.107-195.523c-0.114-107.87-87.655-195.222-195.521-195.105
		C83.155-168.906-4.201-81.369-4.086,26.501z M106.09-93.302l29.631,51.18c-16.507,13.425-28.059,33.675-31.486,54.651
		l-59.127,0.062C49.123-30.458,72.261-69.164,106.09-93.302z M228.552,26.253c0.021,20.615-16.67,37.342-37.283,37.366
		c-20.613,0.022-37.342-16.672-37.361-37.287c-0.022-20.611,16.67-37.34,37.282-37.362C211.801-11.052,228.531,5.642,228.552,26.253
		z M45.136,41.288l59.128-0.06c3.373,19.862,14.405,39.569,30.185,52.898l-29.579,51.626
		C71.794,121.641,49.186,85.436,45.136,41.288z M128.546,159.02l29.466-51.159c10.279,4.191,21.524,6.5,33.313,6.487
		c9.816-0.011,19.254-1.628,28.066-4.601l29.765,51.421c-17.725,7.624-37.253,11.862-57.77,11.882
		C168.904,173.075,147.6,168.037,128.546,159.02z M273.328,148.336l-29.527-50.828c17.128-12.767,29.452-32.179,33.782-53.154
		l59.393-0.063C331.893,87.344,307.849,124.999,273.328,148.336z M337.623,16.696l-58.936,0.063
		c-2.644-23.174-14.035-43.376-30.734-57.456l29.579-51.182C311.566-67.087,334.532-27.449,337.623,16.696z M253.85-106.464
		L224.382-55.3c-10.262-4.172-21.481-6.475-33.245-6.461c-11.14,0.011-21.79,2.098-31.596,5.879l-29.63-51.189
		c18.616-8.573,39.327-13.369,61.163-13.392C213.531-120.487,234.81-115.458,253.85-106.464z"/>
	<path fill="#CCCCCC" stroke="#000000" stroke-miterlimit="10" d="M584.524,142.081c-94.308,54.447-126.62,175.037-72.172,269.342
		c54.449,94.306,175.035,126.616,269.344,72.169C876,429.144,908.311,308.557,853.864,214.252
		C799.416,119.945,678.828,87.633,584.524,142.081z M744.785,178.129l-29.863,51.718c-20.061-7.678-42.836-8.018-63.693,0.004
		l-29.848-51.695C661.668,159.635,706.629,160.695,744.785,178.129z M701.948,345.467c-18.021,10.403-41.064,4.231-51.471-13.792
		c-10.402-18.021-4.23-41.065,13.793-51.469c18.02-10.406,41.064-4.23,51.471,13.791
		C726.145,312.018,719.969,335.061,701.948,345.467z M597.487,191.954l29.846,51.694c-17.428,13.967-27.912,32.856-31.619,53.376
		L535.92,297C540.352,255.916,561.272,217.53,597.487,191.954z M535.416,325.314h59.604c1.512,10.556,5.154,21.885,11.105,32.19
		c4.957,8.582,11.125,15.913,18.168,22.125l-29.99,51.889c-15.598-11.664-29.143-26.418-39.5-44.355
		C543.457,367.508,537.131,346.426,535.416,325.314z M617.795,446.094l29.633-51.465c19.797,8.552,42.246,9.981,63.561,2.748
		l29.98,51.924C701.1,466.343,655.608,464.536,617.795,446.094z M765.205,436.097l-29.746-51.522
		c18.748-13.882,30.902-34.147,34.803-55.849l59.662,0.095C825.387,371.081,802.86,410.809,765.205,436.097z M830.793,300.682
		h-59.605c-1.52-10.556-5.158-22.031-11.096-32.314c-5.623-9.74-12.813-17.996-21.066-24.667l29.855-51.702
		c16.877,11.965,31.51,27.644,42.533,46.735C822.748,258.367,829.071,279.571,830.793,300.682z"/>
	<g>
		<path fill="#999999" d="M243.157,557.567l-55.482-32.029c-21.122,26.113-50.963,42.686-82.839,47.77l0.041,68.786
			c-8.276,9.872-15.801,20.348-22.526,31.336L16.703,691.02c3.53,33.4-5.853,66.222-24.8,92.354l52.708,52.646
			c0.917,9.993,2.413,20.027,4.492,30.066l-36.281,62.843c26.111,21.121,42.688,50.965,47.769,82.844l72.044-0.044
			c8.819,7.879,18.131,15.129,27.864,21.722l17.806,66.45c33.4-3.529,66.221,5.853,92.356,24.801l46.894-46.947
			c14.333-0.739,28.766-2.72,43.179-6.004l55.48,32.032c21.121-26.113,50.965-42.685,82.841-47.769l-0.039-68.791
			c8.274-9.869,15.797-20.347,22.524-31.332l65.646-17.59c-3.531-33.401,5.852-66.222,24.801-92.355l-52.711-52.648
			c-0.916-9.989-2.412-20.024-4.49-30.063l36.283-62.843c-26.115-21.121-42.689-50.966-47.77-82.844l-72.046,0.044
			c-8.819-7.877-18.132-15.129-27.862-21.717l-17.807-66.457c-33.399,3.529-66.221-5.853-92.355-24.8l-46.894,46.947
			C272.005,552.304,257.57,554.286,243.157,557.567z M514.006,773.522c5.418,20.233,8.311,40.545,8.891,60.607l-121.154-32.46
			c-6.495-23.07-18.16-43.313-33.414-59.821l32.715-122.089C454.71,653.807,496.258,707.292,514.006,773.522z M90.723,855.833
			c-5.118-19.104-7.977-38.282-8.768-57.253l122.095,32.72c6.687,21.649,17.969,40.699,32.495,56.369l-32.698,122.029
			C150.102,975.663,108.489,922.13,90.723,855.833z M319.249,594.516L286.66,716.134c-23.05,6.785-43.249,18.721-59.613,34.266
			L105.51,717.839c33.995-54.401,87.857-96.559,154.707-114.47C279.921,598.091,299.697,595.199,319.249,594.516z M367.639,797.059
			c9.721,36.28-11.811,73.574-48.091,83.297c-36.283,9.722-73.576-11.811-83.297-48.094c-9.724-36.281,11.809-73.574,48.092-83.296
			C320.624,739.244,357.919,760.775,367.639,797.059z M284.35,1032.844l32.601-121.672c21.664-6.405,40.781-17.396,56.574-31.637
			l122.586,32.847c-34.078,53.021-87.241,94.02-152.92,111.617C323.552,1029.26,303.835,1032.151,284.35,1032.844z"/>
		<path fill="none" stroke="#000000" stroke-miterlimit="10" d="M243.157,557.567l-55.482-32.029
			c-21.122,26.113-50.963,42.686-82.839,47.77l0.041,68.786c-8.276,9.872-15.801,20.348-22.526,31.336L16.703,691.02
			c3.53,33.4-5.853,66.222-24.8,92.354l52.708,52.646c0.917,9.993,2.413,20.027,4.492,30.066l-36.281,62.843
			c26.111,21.121,42.688,50.965,47.769,82.844l72.044-0.044c8.819,7.879,18.131,15.129,27.864,21.722l17.806,66.45
			c33.4-3.529,66.221,5.853,92.356,24.801l46.894-46.947c14.333-0.739,28.766-2.72,43.179-6.004l55.48,32.032
			c21.121-26.113,50.965-42.685,82.841-47.769l-0.039-68.791c8.274-9.869,15.797-20.347,22.524-31.332l65.646-17.59
			c-3.531-33.401,5.852-66.222,24.801-92.355l-52.711-52.648c-0.916-9.989-2.412-20.024-4.49-30.063l36.283-62.843
			c-26.115-21.121-42.689-50.966-47.77-82.844l-72.046,0.044c-8.819-7.877-18.132-15.129-27.862-21.717l-17.807-66.457
			c-33.399,3.529-66.221-5.853-92.355-24.8l-46.894,46.947C272.005,552.304,257.57,554.286,243.157,557.567z M514.006,773.522
			c5.418,20.233,8.311,40.545,8.891,60.607l-121.154-32.46c-6.495-23.07-18.16-43.313-33.414-59.821l32.715-122.089
			C454.71,653.807,496.258,707.292,514.006,773.522z M90.723,855.833c-5.118-19.104-7.977-38.282-8.768-57.253l122.095,32.72
			c6.687,21.649,17.969,40.699,32.495,56.369l-32.698,122.029C150.102,975.663,108.489,922.13,90.723,855.833z M319.249,594.516
			L286.66,716.134c-23.05,6.785-43.249,18.721-59.613,34.266L105.51,717.839c33.995-54.401,87.857-96.559,154.707-114.47
			C279.921,598.091,299.697,595.199,319.249,594.516z M367.639,797.059c9.721,36.28-11.811,73.574-48.091,83.297
			c-36.283,9.722-73.576-11.811-83.297-48.094c-9.724-36.281,11.809-73.574,48.092-83.296
			C320.624,739.244,357.919,760.775,367.639,797.059z M284.35,1032.844l32.601-121.672c21.664-6.405,40.781-17.396,56.574-31.637
			l122.586,32.847c-34.078,53.021-87.241,94.02-152.92,111.617C323.552,1029.26,303.835,1032.151,284.35,1032.844z"/>
		<path fill="#999999" d="M243.157,557.567l-55.482-32.029c-21.122,26.113-50.963,42.686-82.839,47.77l0.041,68.786
			c-8.276,9.872-15.801,20.348-22.526,31.336L16.703,691.02c3.53,33.4-5.853,66.222-24.8,92.354l52.708,52.646
			c0.917,9.993,2.413,20.027,4.492,30.066l-36.281,62.843c26.111,21.121,42.688,50.965,47.769,82.844l72.044-0.044
			c8.819,7.879,18.131,15.129,27.864,21.722l17.806,66.45c33.4-3.529,66.221,5.853,92.356,24.801l46.894-46.947
			c14.333-0.739,28.766-2.72,43.179-6.004l55.48,32.032c21.121-26.113,50.965-42.685,82.841-47.769l-0.039-68.791
			c8.274-9.869,15.797-20.347,22.524-31.332l65.646-17.59c-3.531-33.401,5.852-66.222,24.801-92.355l-52.711-52.648
			c-0.916-9.989-2.412-20.024-4.49-30.063l36.283-62.843c-26.115-21.121-42.689-50.966-47.77-82.844l-72.046,0.044
			c-8.819-7.877-18.132-15.129-27.862-21.717l-17.807-66.457c-33.399,3.529-66.221-5.853-92.355-24.8l-46.894,46.947
			C272.005,552.304,257.57,554.286,243.157,557.567z M514.006,773.522c5.418,20.233,8.311,40.545,8.891,60.607l-121.154-32.46
			c-6.495-23.07-18.16-43.313-33.414-59.821l32.715-122.089C454.71,653.807,496.258,707.292,514.006,773.522z M90.723,855.833
			c-5.118-19.104-7.977-38.282-8.768-57.253l122.095,32.72c6.687,21.649,17.969,40.699,32.495,56.369l-32.698,122.029
			C150.102,975.663,108.489,922.13,90.723,855.833z M319.249,594.516L286.66,716.134c-23.05,6.785-43.249,18.721-59.613,34.266
			L105.51,717.839c33.995-54.401,87.857-96.559,154.707-114.47C279.921,598.091,299.697,595.199,319.249,594.516z M367.639,797.059
			c9.721,36.28-11.811,73.574-48.091,83.297c-36.283,9.722-73.576-11.811-83.297-48.094c-9.724-36.281,11.809-73.574,48.092-83.296
			C320.624,739.244,357.919,760.775,367.639,797.059z M284.35,1032.844l32.601-121.672c21.664-6.405,40.781-17.396,56.574-31.637
			l122.586,32.847c-34.078,53.021-87.241,94.02-152.92,111.617C323.552,1029.26,303.835,1032.151,284.35,1032.844z"/>
	</g>
	<circle fill="#333333" stroke="#000000" stroke-miterlimit="10" cx="683.108" cy="312.837" r="39.063"/>
	<path fill="#E6E6E6" stroke="#000000" stroke-miterlimit="10" d="M371.083,597.316c0,170.463,138.188,308.648,308.649,308.648
		s308.648-138.186,308.648-308.648c0-170.461-138.188-308.647-308.648-308.647S371.083,426.855,371.083,597.316z M545.387,408.486
		l46.738,81.075c-26.107,21.184-44.395,53.033-49.846,86.461h-93.438C455.262,507.407,491.89,446.569,545.387,408.486z
		 M738.713,597.316c0,32.575-26.408,58.982-58.98,58.982c-32.574,0-58.98-26.407-58.98-58.982c0-32.572,26.406-58.98,58.98-58.98
		C712.305,538.336,738.713,564.744,738.713,597.316z M448.841,620.006h93.438c5.295,32.548,22.697,62.939,47.611,84.027
		l-46.828,81.346C490.834,747.217,455.169,689.501,448.841,620.006z M580.453,806.955l46.648-80.796
		c16.236,6.64,34.002,10.309,52.631,10.309c15.512,0,30.43-2.542,44.363-7.227l46.947,81.313
		c-28.023,12.016-58.889,18.679-91.311,18.679C644.205,829.232,610.549,821.234,580.453,806.955z M809.266,790.393l-46.578-80.331
		c27.088-20.147,46.596-49.592,53.475-83.898h93.855C901.914,693.898,863.858,753.567,809.266,790.393z M911.088,583.059h-93.131
		c-4.145-36.066-22.105-68.901-48.471-91.178l46.826-80.664C870.051,450.444,906.278,512.685,911.088,583.059z M778.91,387.632
		l-46.652,80.802c-16.209-6.612-33.938-10.266-52.525-10.266c-17.604,0-34.438,3.279-49.939,9.239l-46.734-80.944
		c29.43-13.514,62.168-21.062,96.674-21.062C715.219,365.401,748.838,373.384,778.91,387.632z"/>
	<circle fill="#333333" stroke="#000000" stroke-miterlimit="10" cx="679.733" cy="597.317" r="61.202"/>
	<circle fill="#333333" stroke="#000000" stroke-miterlimit="10" cx="301.945" cy="814.661" r="69.138"/>
</g>
<linearGradient id="SVGID_1_" gradientUnits="userSpaceOnUse" x1="-326.6238" y1="-44.3787" x2="636.9253" y2="919.1703" gradientTransform="matrix(1 0 0 -1 202.3999 1080.0991)">
	<stop  offset="0" style="stop-color:#000000;stop-opacity:0.5"/>
	<stop  offset="1" style="stop-color:#000000;stop-opacity:0.9"/>
</linearGradient>
<rect x="5.807" y="255.53" fill="url(#SVGID_1_)" stroke="#000000" stroke-width="11" stroke-linejoin="round" stroke-miterlimit="10" width="988.709" height="489.125"/>
<g>
	<g>
		<path fill="#1D1D1D" d="M164.877,380.931c15.492-2.582,35.779-4.795,61.6-4.795c31.721,0,54.959,7.377,69.713,20.655
			c13.646,11.803,21.762,29.877,21.762,52.008c0,22.5-6.639,40.206-19.181,53.116c-16.967,18.072-44.631,27.295-75.983,27.295
			c-9.589,0-18.442-0.369-25.819-2.215v99.589h-32.09L164.877,380.931L164.877,380.931z M196.968,500.808
			c7.009,1.846,15.86,2.582,26.558,2.582c38.729,0,62.336-18.811,62.336-53.114c0-32.828-23.238-48.688-58.647-48.688
			c-14.016,0-24.714,1.105-30.246,2.583V500.808z"/>
		<path fill="#1D1D1D" d="M375.165,452.556v72.815h84.175v-72.815h22.723v174.031H459.34v-81.594h-84.175v81.594H352.7V452.556
			H375.165z"/>
		<path fill="#1D1D1D" d="M549.192,571.846l-18.074,54.74h-23.238l59.127-174.031h27.111l59.389,174.031h-24.014l-18.59-54.74
			H549.192L549.192,571.846z M606.254,554.29l-17.043-50.091c-3.873-11.362-6.453-21.69-9.035-31.76h-0.518
			c-2.582,10.328-5.422,20.914-8.779,31.5l-17.041,50.351H606.254z"/>
		<path fill="#1D1D1D" d="M701.531,452.556v174.031h-22.463V452.556H701.531z"/>
		<path fill="#1D1D1D" d="M737.678,599.216c10.07,6.197,24.787,11.363,40.279,11.363c22.98,0,36.408-12.137,36.408-29.695
			c0-16.266-9.297-25.563-32.793-34.598c-28.402-10.069-45.961-24.788-45.961-49.318c0-27.111,22.465-47.251,56.289-47.251
			c17.814,0,30.727,4.13,38.473,8.521l-6.197,18.332c-5.68-3.098-17.299-8.262-33.051-8.262c-23.754,0-32.791,14.201-32.791,26.078
			c0,16.268,10.586,24.272,34.6,33.569c29.436,11.359,44.412,25.56,44.412,51.124c0,26.854-19.883,50.092-60.938,50.092
			c-16.783,0-35.115-4.906-44.41-11.105L737.678,599.216z"/>
	</g>
	<g>
		
			<linearGradient id="SVGID_2_" gradientUnits="userSpaceOnUse" x1="-41.7458" y1="582.5339" x2="111.3284" y2="582.5339" gradientTransform="matrix(1 0 0 -1 202.3999 1080.0991)">
			<stop  offset="0" style="stop-color:#FFFFFF"/>
			<stop  offset="1" style="stop-color:#A6A6A6"/>
		</linearGradient>
		<path fill="url(#SVGID_2_)" d="M160.654,377.135c15.492-2.582,35.779-4.794,61.599-4.794c31.722,0,54.959,7.377,69.713,20.655
			c13.647,11.803,21.763,29.877,21.763,52.008c0,22.5-6.64,40.205-19.182,53.115c-16.966,18.075-44.631,27.295-75.982,27.295
			c-9.589,0-18.442-0.369-25.819-2.213v99.589h-32.09L160.654,377.135L160.654,377.135z M192.744,497.013
			c7.008,1.844,15.86,2.583,26.557,2.583c38.729,0,62.335-18.813,62.335-53.115c0-32.828-23.236-48.688-58.646-48.688
			c-14.016,0-24.714,1.106-30.246,2.583V497.013z"/>
		
			<linearGradient id="SVGID_3_" gradientUnits="userSpaceOnUse" x1="146.0774" y1="544.324" x2="275.4397" y2="544.324" gradientTransform="matrix(1 0 0 -1 202.3999 1080.0991)">
			<stop  offset="0" style="stop-color:#FFFFFF"/>
			<stop  offset="1" style="stop-color:#A6A6A6"/>
		</linearGradient>
		<path fill="url(#SVGID_3_)" d="M370.942,448.76v72.814h84.175V448.76h22.723v174.03h-22.723v-81.594h-84.175v81.594h-22.465
			V448.76H370.942z"/>
		
			<linearGradient id="SVGID_4_" gradientUnits="userSpaceOnUse" x1="301.2566" y1="544.324" x2="446.8835" y2="544.324" gradientTransform="matrix(1 0 0 -1 202.3999 1080.0991)">
			<stop  offset="0" style="stop-color:#FFFFFF"/>
			<stop  offset="1" style="stop-color:#A6A6A6"/>
		</linearGradient>
		<path fill="url(#SVGID_4_)" d="M544.967,568.05l-18.072,54.74h-23.238l59.127-174.03h27.113l59.387,174.03H625.27l-18.592-54.74
			H544.967z M602.031,550.493L584.99,500.4c-3.873-11.36-6.455-21.688-9.037-31.758h-0.518c-2.582,10.328-5.422,20.914-8.779,31.5
			l-17.039,50.351H602.031z"/>
		
			<linearGradient id="SVGID_5_" gradientUnits="userSpaceOnUse" x1="472.4441" y1="544.324" x2="494.907" y2="544.324" gradientTransform="matrix(1 0 0 -1 202.3999 1080.0991)">
			<stop  offset="0" style="stop-color:#FFFFFF"/>
			<stop  offset="1" style="stop-color:#A6A6A6"/>
		</linearGradient>
		<path fill="url(#SVGID_5_)" d="M697.307,448.76v174.03h-22.463V448.76H697.307z"/>
		
			<linearGradient id="SVGID_6_" gradientUnits="userSpaceOnUse" x1="525.3733" y1="544.4529" x2="630.7209" y2="544.4529" gradientTransform="matrix(1 0 0 -1 202.3999 1080.0991)">
			<stop  offset="0" style="stop-color:#FFFFFF"/>
			<stop  offset="1" style="stop-color:#A6A6A6"/>
		</linearGradient>
		<path fill="url(#SVGID_6_)" d="M733.455,595.421c10.068,6.197,24.787,11.361,40.279,11.361c22.979,0,36.406-12.137,36.406-29.695
			c0-16.268-9.297-25.563-32.793-34.6c-28.402-10.067-45.961-24.786-45.961-49.316c0-27.111,22.465-47.251,56.289-47.251
			c17.816,0,30.729,4.13,38.475,8.521l-6.197,18.332c-5.68-3.098-17.301-8.262-33.051-8.262c-23.754,0-32.791,14.203-32.791,26.08
			c0,16.266,10.586,24.27,34.6,33.567c29.436,11.359,44.41,25.562,44.41,51.124c0,26.854-19.881,50.092-60.936,50.092
			c-16.785,0-35.117-4.906-44.412-11.104L733.455,595.421z"/>
	</g>
</g>
</svg>
