<?xml version="1.0" encoding="utf-8"?>
<!-- Generator: Adobe Illustrator 16.0.0, SVG Export Plug-In . SVG Version: 6.00 Build 0)  -->
<!DOCTYPE svg PUBLIC "-//W3C//DTD SVG 1.1//EN" "http://www.w3.org/Graphics/SVG/1.1/DTD/svg11.dtd">
<svg version="1.1" id="Layer_1" xmlns="http://www.w3.org/2000/svg" xmlns:xlink="http://www.w3.org/1999/xlink" x="0px" y="0px"
	 width="1000px" height="1000px" viewBox="0 0 1000 1000" enable-background="new 0 0 1000 1000" xml:space="preserve">
<rect x="-0.5" y="0.5" fill="#1A1A1A" stroke="#000000" stroke-miterlimit="10" width="1000" height="1000"/>
<g>
	<ellipse fill="#333333" stroke="#000000" stroke-miterlimit="10" cx="415.148" cy="317.685" rx="69.119" ry="67.928"/>
	<path fill="#3C3C3C" stroke="#000000" stroke-miterlimit="10" d="M614.491,325.063l34.262-34.264
		c-14.943-20.544-21.21-45.591-18.684-69.876l-50.675-13.437c-5.592-7.979-10.895-15.528-18.895-22.593v-51.403
		c-25-3.96-46.825-17.24-62.209-36.2l-48.575,28.203c-7.48-1.287-15.002-2.157-22.745-2.604l-38.759-38.81
		c-20.543,14.943-45.566,21.211-69.851,18.682L304.303,155.4c-7.483,4.901-14.591,10.1-21.312,16.1h-52.036
		c-3.96,25-17.24,47.242-36.2,62.627l25.121,43.454c-2.267,10.616-3.644,21.552-4.068,32.725l-34.264,34.263
		c14.944,20.543,21.211,45.591,18.683,69.876l50.028,13.438c5.592,7.978,12.245,15.526,18.245,22.591v51.404
		c25,3.959,47.474,17.239,62.858,36.199l48.902-28.203c7.479,1.286,15.162,2.156,22.903,2.604l38.841,38.811
		c20.543-14.943,45.605-21.211,69.89-18.684l14.08-52.323c7.483-4.899,14.609-10.782,21.331-15.782h52.036
		c3.96-25,17.24-47.558,36.2-62.941l-25.121-43.612C612.688,347.331,614.064,336.235,614.491,325.063z M415.149,470.496
		c-12.188,0-24.039-1.435-35.401-4.131l36.487-63.199c13.943-0.175,27.077-3.683,38.651-9.771l63.688,36.771
		C491.36,455.202,455.042,470.496,415.149,470.496z M415.149,164.873c11.508,0,22.715,1.281,33.496,3.692l-36.773,63.693
		c-13.173,0.498-25.58,3.97-36.574,9.772l-63.657-36.751C338.864,180.197,375.214,164.873,415.149,164.873z M564.046,352.194
		l-63.441-36.628c-0.341-13.976-4.008-27.125-10.281-38.664l36.604-63.4c25.451,27.297,41.031,63.917,41.031,104.183
		C567.959,329.553,566.607,341.104,564.046,352.194z M415.149,369.127c-28.411,0-51.443-23.032-51.443-51.443
		c0-28.412,23.032-51.443,51.443-51.443c28.411,0,51.442,23.032,51.442,51.443C466.591,346.096,443.56,369.127,415.149,369.127z
		 M266.227,283.285l63.47,36.644c0.339,13.141,3.637,25.539,9.262,36.559l-36.92,63.948
		c-24.667-27.138-39.701-63.188-39.701-102.751C262.337,305.855,263.683,294.341,266.227,283.285z"/>
	<path fill="#666666" stroke="#000000" stroke-miterlimit="10" d="M869.223,709.974l12.539-46.805
		c-23.212-10.319-41.164-28.878-51.116-51.174l-50.249,13.497c-8.832-4.113-17.961-7.561-27.305-10.323l-25.702-44.518
		c-23.712,9.116-49.526,8.688-72.329-0.04l-28.145,48.816c-7.122,2.625-14.16,5.684-21.088,9.167l-53.016-14.205
		c-10.319,23.212-28.877,41.165-51.174,51.118l14.135,52.626c-4.029,7.986-7.504,16.21-10.415,24.61l-45.063,26.018
		c9.117,23.712,8.687,49.527-0.04,72.332l43.481,25.069c3.346,10.327,7.619,20.484,12.838,30.372l-12.541,46.805
		c23.211,10.319,41.165,28.877,51.117,51.173l50.252-13.495c8.832,4.113,17.957,7.56,27.302,10.322l25.702,44.518
		c23.711-9.118,49.525-8.688,72.331,0.038l28.146-48.815c7.118-2.625,14.156-5.683,21.084-9.168l53.017,14.206
		c10.319-23.212,28.878-41.163,51.173-51.116l-14.135-52.629c4.031-7.984,7.504-16.209,10.412-24.607l45.066-26.02
		c-9.116-23.711-8.688-49.526,0.039-72.329l-43.48-25.069C878.714,730.02,874.439,719.86,869.223,709.974z M768.764,935.867
		c-10.555,6.093-22.264,10.502-33.264,13.849V876.74c12-7.124,22.687-16.24,29.666-27.24h73.542
		C827.655,884.5,803.313,915.919,768.764,935.867z M616.068,670.834c9.966-5.754,19.432-10.168,30.432-13.47v73.546
		c-12,7.018-19.322,16.59-25.941,26.59h-73.506C558.088,722.5,581.485,690.803,616.068,670.834z M839.103,758.5h-73.258
		c-7.283-12-18.345-21.297-29.345-28.151V657.14c36,10.914,68.047,34.741,88.182,69.613
		C830.613,737.031,835.774,747.5,839.103,758.5z M718.619,847.806c-24.604,14.205-56.067,5.773-70.273-18.83
		c-14.206-24.606-5.773-56.067,18.831-70.272c24.604-14.204,56.066-5.777,70.272,18.829
		C751.653,802.137,743.223,833.6,718.619,847.806z M546.728,848.5h73.287c6.866,11,14.485,19.722,24.485,26.453v73.841
		c-34-11.169-65.069-34.583-84.85-68.847C553.736,869.703,550.053,859.5,546.728,848.5z"/>
	<path fill="#B3B3B3" stroke="#000000" stroke-miterlimit="10" d="M252.842,377.556c-123.79,0-224.141,100.352-224.141,224.142
		c0,123.789,100.352,224.141,224.141,224.141c123.79,0,224.141-100.352,224.141-224.141
		C476.982,477.908,376.632,377.556,252.842,377.556z M390.067,504.137l-58.827,33.941c-15.385-18.96-37.74-32.24-62.74-36.199
		v-67.855C318.5,438.688,362.411,465.286,390.067,504.137z M252.842,644.529c-23.656,0-42.833-19.177-42.833-42.831
		c0-23.655,19.177-42.833,42.833-42.833c23.655,0,42.832,19.178,42.832,42.833C295.674,625.353,276.497,644.529,252.842,644.529z
		 M236.5,434.024v67.855c-25,3.846-45.773,16.482-61.088,34.576l-59.04-34.008C144.085,464.519,186.5,438.619,236.5,434.024z
		 M100.602,529.602l58.675,33.876c-4.822,11.791-7.486,24.693-7.486,38.221c0,11.265,1.845,22.098,5.247,32.217l-59.049,34.092
		c-8.727-20.351-13.565-42.764-13.565-66.309C84.424,575.898,90.233,551.457,100.602,529.602z M112.431,695.764l58.24-33.824
		c14.631,19.672,35.829,33.838,60.829,38.833v68.16C183.5,763.047,139.176,735.409,112.431,695.764z M263.5,769.708v-67.632
		c26-3.009,49.883-16.054,66.062-35.198l58.654,34.005C359.729,739.907,314.5,766.215,263.5,769.708z M405.115,673.721
		l-58.678-33.879c4.801-11.771,7.455-24.646,7.455-38.144c0-12.784-2.38-25.01-6.71-36.268l58.782-33.938
		c9.814,21.373,15.295,45.147,15.295,70.206C421.259,627.469,415.463,651.883,405.115,673.721z"/>
	<circle fill="#333333" stroke="#000000" stroke-miterlimit="10" cx="252.842" cy="601.698" r="46.251"/>
	<circle fill="#333333" stroke="#000000" stroke-miterlimit="10" cx="176.305" cy="727.168" r="55.034"/>
	<circle fill="#333333" stroke="#000000" stroke-miterlimit="10" cx="-106.003" cy="567.821" r="55.034"/>
	<path fill="#808080" stroke="#000000" stroke-miterlimit="10" d="M323.114,592.404l0.351-48.453
		c-25.062-4.143-47.11-17.582-62.356-36.653l-45.23,25.715c-9.583-1.757-19.286-2.794-29.025-3.114l-36.083-36.612
		c-20.652,14.794-45.743,20.879-70.008,18.174l-14.946,54.331c-6.231,4.334-12.272,9.066-18.099,14.182l-54.885-0.396
		c-4.142,25.062-17.58,47.109-36.653,62.357l26.932,47.371c-1.889,8.742-3.18,17.576-3.882,26.439l-37.061,36.526
		c14.795,20.652,20.879,45.744,18.175,70.01l48.393,13.313c5.838,9.152,12.532,17.906,20.074,26.162l-0.354,48.453
		c25.063,4.142,47.112,17.582,62.357,36.652l45.235-25.716c9.582,1.758,19.281,2.797,29.02,3.116l36.083,36.61
		c20.651-14.794,45.743-20.88,70.01-18.176l14.946-54.332c6.228-4.33,12.27-9.063,18.097-14.182l54.885,0.399
		c4.143-25.062,17.582-47.108,36.653-62.354l-26.933-47.375c1.891-8.741,3.181-17.576,3.881-26.438l37.063-36.528
		c-14.794-20.648-20.879-45.742-18.177-70.006l-48.392-13.313C337.348,609.415,330.654,600.659,323.114,592.404z M282.516,836.109
		c-8.68,8.555-18.743,16.002-28.83,22.086l-18.375-70.625c10.349-10.055,18.19-21.76,22.102-34.444l71.173-18.521
		C326.734,771.388,310.928,808.104,282.516,836.109z M68.014,618.276c8.196-8.079,16.958-14.855,25.84-20.58l18.52,71.176
		c-9.16,9.635-14.094,20.643-17.974,32.025l-71.136,18.51C25.097,682.629,39.573,646.308,68.014,618.276z M306.217,647.078
		l-70.896,18.448c-10.208-10.31-23.005-16.156-35.659-19.945l-18.435-70.851c37.961,1.4,74.688,16.531,102.956,45.21
		C292.511,628.395,300.154,636.989,306.217,647.078z M212.073,763.719c-20.234,19.942-52.808,19.706-72.75-0.527
		c-19.944-20.236-19.707-52.808,0.528-72.749c20.233-19.941,52.807-19.71,72.75,0.525
		C232.542,711.202,232.306,743.775,212.073,763.719z M45.697,806.915l70.926-18.455c9.487,9.202,19.4,16.142,30.809,20.13
		l18.594,71.461c-35.597-2.279-71.907-17.429-99.678-45.608C58.045,826.017,51.76,817.007,45.697,806.915z"/>
	<circle fill="#333333" stroke="#000000" stroke-miterlimit="10" cx="136.605" cy="154.573" r="57.016"/>
	<path fill="#E6E6E6" stroke="#000000" stroke-miterlimit="10" d="M45.903,1097.119c25.593,119.924,143.559,196.394,263.482,170.801
		c119.922-25.593,196.393-143.558,170.8-263.48c-25.593-119.924-143.558-196.393-263.48-170.8
		C96.782,859.232,20.31,977.196,45.903,1097.119z M140.135,937.892l45.031,49.916c-15.187,18.824-23.25,44.071-22.11,68.205
		l-65.735,14.027C91.625,1021.222,108.216,972.717,140.135,937.892z M304.538,1041.924c4.89,22.918-9.723,45.46-32.638,50.35
		c-22.917,4.892-45.458-9.721-50.349-32.639c-4.89-22.916,9.722-45.459,32.638-50.349
		C277.104,1004.396,299.647,1019.009,304.538,1041.924z M104.13,1101.943l65.734-14.026c8.44,21.29,25.36,40.601,46.054,51.697
		l-20.704,64.392C152.742,1185.002,119.055,1150.078,104.13,1101.943z M224.674,1213.169l20.688-63.846
		c12.419,2.235,25.469,2.147,38.575-0.649c10.912-2.328,21.026-6.356,30.124-11.743l45.237,50.154
		c-17.91,12.662-38.624,21.984-61.434,26.851C272.87,1219.271,247.992,1218.697,224.674,1213.169z M383.149,1167.107l-44.833-49.549
		c16.032-18.239,25.153-42.734,25.016-67.082l66.031-14.091C433.874,1085.459,416.027,1133.008,383.149,1167.107z M423.568,1005.548
		l-65.521,13.982c-8.413-25.146-25.846-44.921-47.74-56.635l20.809-63.897C374.812,918.531,409.708,957.188,423.568,1005.548z
		 M301.336,888.37l-20.689,63.852c-12.396-2.218-25.417-2.129-38.494,0.663c-12.384,2.643-23.735,7.478-33.747,13.997
		l-45.032-49.928c18.677-13.927,40.576-24.149,64.851-29.33C253.192,882.295,278.041,882.863,301.336,888.37z"/>
	<path fill="#E6E6E6" stroke="#000000" stroke-miterlimit="10" d="M-327.559,579.105c6.478,122.451,110.998,216.467,233.451,209.991
		C28.343,782.619,122.36,678.1,115.883,555.646c-6.478-122.453-110.998-216.467-233.449-209.99
		C-240.019,352.134-334.037,456.652-327.559,579.105z M-209.531,436.617l36.649,56.358c-17.949,16.211-29.871,39.882-32.528,63.896
		l-67.121,3.55C-270.505,511.313-246.514,466.008-209.531,436.617z M-63.469,565.135c1.237,23.401-16.729,43.372-40.128,44.612
		c-23.4,1.239-43.373-16.729-44.609-40.13c-1.237-23.398,16.727-43.373,40.127-44.61C-84.681,523.77-64.707,541.736-63.469,565.135z
		 M-270.808,592.997l67.121-3.548c4.998,22.35,18.682,44.073,37.381,58.277l-30.542,60.349
		C-235.817,682.648-263.613,642.877-270.808,592.997z M-169.189,721.744l30.44-59.813c11.916,4.154,24.817,6.112,38.2,5.405
		c11.142-0.59,21.763-2.981,31.592-6.875l36.815,56.624c-19.673,9.698-41.593,15.658-64.884,16.889
		C-122.546,735.325-147.026,730.858-169.189,721.744z M-5.454,701.094l-36.512-55.964c18.693-15.501,31.541-38.265,35.223-62.332
		l67.423-3.566C57.444,628.405,32.364,672.569-5.454,701.094z M59.792,547.867l-66.903,3.539
		c-4.366-26.154-18.485-48.418-38.271-63.419l30.568-59.844C25.279,454.283,53.684,497.932,59.792,547.867z M-42.561,412.978
		l-30.442,59.818c-11.896-4.134-24.769-6.086-38.122-5.379c-12.646,0.668-24.614,3.664-35.523,8.534l-36.649-56.371
		c20.629-10.827,43.859-17.49,68.647-18.801C-89.157,399.43-64.705,403.887-42.561,412.978z"/>
	<path fill="#999999" stroke="#000000" stroke-miterlimit="10" d="M-84.845,154.815c0.129,122.623,99.643,221.923,222.267,221.795
		c122.622-0.131,221.923-99.643,221.794-222.267C359.086,31.719,259.572-67.58,136.951-67.449
		C14.327-67.32-84.976,32.191-84.845,154.815z M40.4,18.627l33.683,58.18c-18.764,15.261-31.896,38.282-35.792,62.126l-67.215,0.071
		C-24.359,90.066,1.945,46.065,40.4,18.627z M179.613,154.534c0.024,23.434-18.951,42.449-42.383,42.476
		c-23.433,0.026-42.449-18.952-42.472-42.386c-0.025-23.431,18.95-42.448,42.382-42.473
		C160.571,112.127,179.589,131.103,179.613,154.534z M-28.891,171.626l67.215-0.069c3.834,22.579,16.375,44.982,34.314,60.134
		l-33.625,58.688C1.413,262.969-24.287,221.812-28.891,171.626z M65.928,305.461l33.496-58.157
		c11.685,4.765,24.468,7.389,37.869,7.375c11.158-0.012,21.888-1.851,31.905-5.23l33.835,58.454
		c-20.149,8.667-42.348,13.484-65.671,13.507C111.806,321.438,87.588,315.711,65.928,305.461z M230.513,293.315l-33.566-57.78
		c19.471-14.513,33.48-36.58,38.402-60.424l67.517-0.072C297.088,223.98,269.756,266.786,230.513,293.315z M303.603,143.67
		l-66.997,0.071c-3.006-26.344-15.954-49.31-34.938-65.315l33.625-58.182C273.981,48.426,300.088,93.486,303.603,143.67z
		 M208.371,3.664l-33.499,58.162c-11.666-4.743-24.419-7.36-37.792-7.345c-12.664,0.013-24.77,2.385-35.918,6.684L67.48,2.973
		c21.162-9.745,44.706-15.197,69.528-15.223C162.537-12.278,186.727-6.561,208.371,3.664z"/>
	<path fill="#CCCCCC" stroke="#000000" stroke-miterlimit="10" d="M584.273,286.205c-107.206,61.894-143.938,198.978-82.042,306.182
		c61.896,107.205,198.977,143.936,306.183,82.041c107.205-61.896,143.935-198.977,82.04-306.181
		C828.56,261.041,691.477,224.309,584.273,286.205z M766.457,327.183l-33.948,58.792c-22.805-8.728-48.695-9.114-72.407,0.005
		l-33.929-58.765C671.97,306.16,723.082,307.365,766.457,327.183z M717.759,517.41c-20.486,11.826-46.681,4.809-58.51-15.678
		c-11.827-20.486-4.809-46.683,15.679-58.509c20.484-11.829,46.682-4.809,58.51,15.677
		C745.265,479.385,738.246,505.581,717.759,517.41z M599.009,342.899l33.928,58.765c-19.811,15.877-31.728,37.349-35.942,60.676
		l-67.972-0.027C534.061,415.61,557.841,371.973,599.009,342.899z M528.451,494.5h67.754c1.718,12,5.861,24.878,12.625,36.592
		c5.634,9.756,12.647,18.09,20.654,25.152l-34.093,58.986c-17.732-13.26-33.13-30.031-44.902-50.423
		C537.59,542.465,530.4,518.5,528.451,494.5z M622.096,631.801l33.686-58.505c22.506,9.722,48.024,11.347,72.256,3.124l34.08,59.027
		C716.796,654.818,665.081,652.764,622.096,631.801z M789.669,620.436l-33.815-58.569c21.313-15.782,35.129-38.819,39.564-63.489
		l67.822,0.109C858.082,546.527,832.474,591.689,789.669,620.436z M864.229,466.5H796.47c-1.726-12-5.864-25.045-12.613-36.735
		c-6.392-11.072-14.566-20.457-23.947-28.041l33.938-58.774c19.186,13.601,35.82,31.425,48.35,53.128
		C855.083,418.396,862.271,442.5,864.229,466.5z"/>
	<g>
		<path fill="#999999" d="M196.215,758.521l-63.071-36.41c-24.011,29.684-57.934,48.523-94.17,54.303l0.046,78.195
			c-9.408,11.222-17.962,23.131-25.608,35.622l-74.625,19.996c4.013,37.97-6.653,75.28-28.192,104.987l59.917,59.847
			c1.042,11.359,2.743,22.767,5.106,34.179l-41.244,71.438c29.683,24.01,48.528,57.936,54.303,94.175l81.898-0.05
			c10.026,8.956,20.612,17.199,31.675,24.693l20.241,75.539c37.969-4.012,75.279,6.653,104.99,28.193l53.307-53.369
			c16.294-0.84,32.701-3.092,49.086-6.824l63.068,36.413c24.01-29.685,57.936-48.523,94.172-54.303l-0.044-78.2
			c9.406-11.219,17.958-23.129,25.605-35.617l74.625-19.996c-4.013-37.97,6.653-75.28,28.193-104.988l-59.92-59.849
			c-1.042-11.356-2.743-22.764-5.106-34.176l41.247-71.439c-29.687-24.009-48.528-57.937-54.304-94.174l-81.9,0.049
			c-10.025-8.954-20.612-17.198-31.673-24.687l-20.243-75.547c-37.967,4.012-75.278-6.653-104.987-28.191l-53.308,53.368
			C229.009,752.539,212.6,754.791,196.215,758.521z M504.11,1004.014c6.161,23.001,9.447,46.091,10.108,68.898l-137.725-36.901
			c-7.383-26.225-20.644-49.236-37.985-68.004l37.19-138.788C436.705,867.924,483.935,928.724,504.11,1004.014z M22.932,1097.583
			c-5.818-21.717-9.068-43.518-9.968-65.083l138.796,37.194c7.601,24.61,20.427,46.267,36.939,64.079l-37.169,138.721
			C90.432,1233.803,43.127,1172.948,22.932,1097.583z M282.715,800.524l-37.046,138.252c-26.203,7.713-49.165,21.281-67.767,38.952
			L39.74,940.714c38.645-61.842,99.875-109.766,175.868-130.127C238.007,804.586,260.489,801.299,282.715,800.524z M337.724,1030.77
			c11.051,41.243-13.427,83.638-54.669,94.69c-41.246,11.052-83.64-13.425-94.69-54.671c-11.054-41.244,13.423-83.638,54.669-94.69
			C284.278,965.047,326.674,989.523,337.724,1030.77z M243.043,1298.806l37.06-138.313c24.627-7.283,46.358-19.776,64.312-35.965
			l139.354,37.34c-38.739,60.273-99.174,106.88-173.837,126.883C287.607,1294.732,265.193,1298.018,243.043,1298.806z"/>
		<path fill="none" stroke="#000000" stroke-miterlimit="10" d="M196.215,758.521l-63.071-36.41
			c-24.011,29.684-57.934,48.523-94.17,54.303l0.046,78.195c-9.408,11.222-17.962,23.131-25.608,35.622l-74.625,19.996
			c4.013,37.97-6.653,75.28-28.192,104.987l59.917,59.847c1.042,11.359,2.743,22.767,5.106,34.179l-41.244,71.438
			c29.683,24.01,48.528,57.936,54.303,94.175l81.898-0.05c10.026,8.956,20.612,17.199,31.675,24.693l20.241,75.539
			c37.969-4.012,75.279,6.653,104.99,28.193l53.307-53.369c16.294-0.84,32.701-3.092,49.086-6.824l63.068,36.413
			c24.01-29.685,57.936-48.523,94.172-54.303l-0.044-78.2c9.406-11.219,17.958-23.129,25.605-35.617l74.625-19.996
			c-4.013-37.97,6.653-75.28,28.193-104.988l-59.92-59.849c-1.042-11.356-2.743-22.764-5.106-34.176l41.247-71.439
			c-29.687-24.009-48.528-57.937-54.304-94.174l-81.9,0.049c-10.025-8.954-20.612-17.198-31.673-24.687l-20.243-75.547
			c-37.967,4.012-75.278-6.653-104.987-28.191l-53.308,53.368C229.009,752.539,212.6,754.791,196.215,758.521z M504.11,1004.014
			c6.161,23.001,9.447,46.091,10.108,68.898l-137.725-36.901c-7.383-26.225-20.644-49.236-37.985-68.004l37.19-138.788
			C436.705,867.924,483.935,928.724,504.11,1004.014z M22.932,1097.583c-5.818-21.717-9.068-43.518-9.968-65.083l138.796,37.194
			c7.601,24.61,20.427,46.267,36.939,64.079l-37.169,138.721C90.432,1233.803,43.127,1172.948,22.932,1097.583z M282.715,800.524
			l-37.046,138.252c-26.203,7.713-49.165,21.281-67.767,38.952L39.74,940.714c38.645-61.842,99.875-109.766,175.868-130.127
			C238.007,804.586,260.489,801.299,282.715,800.524z M337.724,1030.77c11.051,41.243-13.427,83.638-54.669,94.69
			c-41.246,11.052-83.64-13.425-94.69-54.671c-11.054-41.244,13.423-83.638,54.669-94.69
			C284.278,965.047,326.674,989.523,337.724,1030.77z M243.043,1298.806l37.06-138.313c24.627-7.283,46.358-19.776,64.312-35.965
			l139.354,37.34c-38.739,60.273-99.174,106.88-173.837,126.883C287.607,1294.732,265.193,1298.018,243.043,1298.806z"/>
		<path fill="#999999" d="M196.215,758.521l-63.071-36.41c-24.011,29.684-57.934,48.523-94.17,54.303l0.046,78.195
			c-9.408,11.222-17.962,23.131-25.608,35.622l-74.625,19.996c4.013,37.97-6.653,75.28-28.192,104.987l59.917,59.847
			c1.042,11.359,2.743,22.767,5.106,34.179l-41.244,71.438c29.683,24.01,48.528,57.936,54.303,94.175l81.898-0.05
			c10.026,8.956,20.612,17.199,31.675,24.693l20.241,75.539c37.969-4.012,75.279,6.653,104.99,28.193l53.307-53.369
			c16.294-0.84,32.701-3.092,49.086-6.824l63.068,36.413c24.01-29.685,57.936-48.523,94.172-54.303l-0.044-78.2
			c9.406-11.219,17.958-23.129,25.605-35.617l74.625-19.996c-4.013-37.97,6.653-75.28,28.193-104.988l-59.92-59.849
			c-1.042-11.356-2.743-22.764-5.106-34.176l41.247-71.439c-29.687-24.009-48.528-57.937-54.304-94.174l-81.9,0.049
			c-10.025-8.954-20.612-17.198-31.673-24.687l-20.243-75.547c-37.967,4.012-75.278-6.653-104.987-28.191l-53.308,53.368
			C229.009,752.539,212.6,754.791,196.215,758.521z M504.11,1004.014c6.161,23.001,9.447,46.091,10.108,68.898l-137.725-36.901
			c-7.383-26.225-20.644-49.236-37.985-68.004l37.19-138.788C436.705,867.924,483.935,928.724,504.11,1004.014z M22.932,1097.583
			c-5.818-21.717-9.068-43.518-9.968-65.083l138.796,37.194c7.601,24.61,20.427,46.267,36.939,64.079l-37.169,138.721
			C90.432,1233.803,43.127,1172.948,22.932,1097.583z M282.715,800.524l-37.046,138.252c-26.203,7.713-49.165,21.281-67.767,38.952
			L39.74,940.714c38.645-61.842,99.875-109.766,175.868-130.127C238.007,804.586,260.489,801.299,282.715,800.524z M337.724,1030.77
			c11.051,41.243-13.427,83.638-54.669,94.69c-41.246,11.052-83.64-13.425-94.69-54.671c-11.054-41.244,13.423-83.638,54.669-94.69
			C284.278,965.047,326.674,989.523,337.724,1030.77z M243.043,1298.806l37.06-138.313c24.627-7.283,46.358-19.776,64.312-35.965
			l139.354,37.34c-38.739,60.273-99.174,106.88-173.837,126.883C287.607,1294.732,265.193,1298.018,243.043,1298.806z"/>
	</g>
	<circle fill="#333333" stroke="#000000" stroke-miterlimit="10" cx="696.343" cy="480.316" r="44.405"/>
	<path fill="#E6E6E6" stroke="#000000" stroke-miterlimit="10" d="M341.639,803.707c0,193.778,157.089,350.865,350.867,350.865
		c193.776,0,350.865-157.087,350.865-350.865c0-193.777-157.089-350.865-350.865-350.865
		C498.728,452.842,341.639,609.93,341.639,803.707z M539.785,589.048l53.131,92.165c-29.68,24.082-50.467,60.287-56.664,98.287
		H430.033C437.332,701.5,478.97,632.34,539.785,589.048z M759.553,803.707c0,37.031-30.019,67.049-67.047,67.049
		c-37.029,0-67.048-30.018-67.048-67.049c0-37.028,30.019-67.048,67.048-67.048C729.534,736.659,759.553,766.679,759.553,803.707z
		 M430.033,829.5h106.219c6.018,37,25.801,71.547,54.123,95.52l-53.234,92.473C477.769,974.11,437.226,908.5,430.033,829.5z
		 M579.647,1042.02l53.029-91.848c18.457,7.548,38.653,11.719,59.829,11.719c17.635,0,34.592-2.89,50.431-8.215l53.369,92.434
		c-31.856,13.66-66.942,21.234-103.8,21.234C652.119,1067.344,613.86,1058.252,579.647,1042.02z M839.756,1023.193l-52.948-91.319
		c30.793-22.903,52.969-56.374,60.787-95.374H954.29C945.078,913.5,901.815,981.33,839.756,1023.193z M955.505,787.5H849.636
		c-4.71-41-25.129-78.326-55.1-103.65l53.231-91.697C908.855,636.746,950.037,707.5,955.505,787.5z M805.249,565.341l-53.033,91.854
		c-18.427-7.517-38.58-11.67-59.71-11.67c-20.011,0-39.148,3.728-56.771,10.503l-53.127-92.015
		c33.457-15.362,70.673-23.942,109.898-23.942C732.846,540.07,771.064,549.145,805.249,565.341z"/>
	<circle fill="#333333" stroke="#000000" stroke-miterlimit="10" cx="692.505" cy="803.707" r="69.573"/>
	<circle fill="#333333" stroke="#000000" stroke-miterlimit="10" cx="263.044" cy="1050.78" r="78.595"/>
</g>
<linearGradient id="SVGID_1_" gradientUnits="userSpaceOnUse" x1="-345.9995" y1="1346" x2="958.0004" y2="42.0001">
	<stop  offset="0" style="stop-color:#000000;stop-opacity:0"/>
	<stop  offset="1" style="stop-color:#000000"/>
</linearGradient>
<rect x="-1" y="1" fill="url(#SVGID_1_)" width="1000" height="1000"/>
<g>
	<g>
		<path fill="#1D1D1D" d="M299.031,28.576c15.492-2.582,35.779-4.795,61.599-4.795c31.721,0,54.959,7.377,69.713,20.655
			c13.647,11.803,21.762,29.877,21.762,52.008c0,22.5-6.639,40.205-19.181,53.115c-16.966,18.074-44.631,27.295-75.983,27.295
			c-9.589,0-18.443-0.369-25.819-2.214v99.59h-32.09V28.576z M331.122,148.453c7.008,1.845,15.86,2.582,26.557,2.582
			c38.729,0,62.336-18.811,62.336-53.114c0-32.828-23.238-48.688-58.647-48.688c-14.016,0-24.714,1.106-30.246,2.583V148.453z"/>
		<path fill="#1D1D1D" d="M509.319,100.2v72.814h84.175V100.2h22.722v174.031h-22.722v-81.593h-84.175v81.593h-22.465V100.2H509.319
			z"/>
		<path fill="#1D1D1D" d="M683.346,219.492l-18.074,54.74h-23.239L701.161,100.2h27.111l59.388,174.031h-24.013l-18.591-54.74
			H683.346z M740.408,201.934l-17.042-50.092c-3.873-11.361-6.454-21.689-9.036-31.759h-0.517
			c-2.583,10.328-5.422,20.915-8.779,31.501l-17.041,50.35H740.408z"/>
		<path fill="#1D1D1D" d="M835.686,100.2v174.031h-22.464V100.2H835.686z"/>
		<path fill="#1D1D1D" d="M871.832,246.861c10.07,6.197,24.788,11.362,40.279,11.362c22.98,0,36.408-12.136,36.408-29.694
			c0-16.267-9.296-25.562-32.792-34.599c-28.403-10.07-45.961-24.788-45.961-49.317c0-27.112,22.464-47.252,56.289-47.252
			c17.815,0,30.727,4.131,38.473,8.521l-6.197,18.333c-5.681-3.099-17.3-8.263-33.051-8.263c-23.754,0-32.792,14.202-32.792,26.079
			c0,16.267,10.587,24.271,34.6,33.567c29.436,11.36,44.412,25.562,44.412,51.125c0,26.854-19.883,50.092-60.938,50.092
			c-16.783,0-35.115-4.906-44.41-11.104L871.832,246.861z"/>
	</g>
	<g>
		<linearGradient id="SVGID_2_" gradientUnits="userSpaceOnUse" x1="294.8081" y1="145.21" x2="447.8813" y2="145.21">
			<stop  offset="0" style="stop-color:#FFFFFF"/>
			<stop  offset="1" style="stop-color:#A6A6A6"/>
		</linearGradient>
		<path fill="url(#SVGID_2_)" d="M294.808,24.779c15.492-2.582,35.779-4.794,61.599-4.794c31.721,0,54.959,7.377,69.713,20.655
			c13.647,11.803,21.762,29.877,21.762,52.008c0,22.5-6.639,40.205-19.181,53.115c-16.966,18.074-44.631,27.295-75.983,27.295
			c-9.589,0-18.442-0.369-25.819-2.213v99.59h-32.09V24.779z M326.898,144.657c7.008,1.844,15.86,2.582,26.557,2.582
			c38.729,0,62.335-18.812,62.335-53.114c0-32.828-23.237-48.689-58.646-48.689c-14.016,0-24.714,1.107-30.246,2.583V144.657z"/>
		<linearGradient id="SVGID_3_" gradientUnits="userSpaceOnUse" x1="482.6309" y1="183.4194" x2="611.9932" y2="183.4194">
			<stop  offset="0" style="stop-color:#FFFFFF"/>
			<stop  offset="1" style="stop-color:#A6A6A6"/>
		</linearGradient>
		<path fill="url(#SVGID_3_)" d="M505.096,96.404v72.814h84.175V96.404h22.723v174.031h-22.723v-81.593h-84.175v81.593h-22.465
			V96.404H505.096z"/>
		<linearGradient id="SVGID_4_" gradientUnits="userSpaceOnUse" x1="637.8096" y1="183.4194" x2="783.4365" y2="183.4194">
			<stop  offset="0" style="stop-color:#FFFFFF"/>
			<stop  offset="1" style="stop-color:#A6A6A6"/>
		</linearGradient>
		<path fill="url(#SVGID_4_)" d="M679.122,215.695l-18.074,54.74H637.81l59.128-174.031h27.112l59.387,174.031h-24.013
			l-18.591-54.74H679.122z M736.186,198.137l-17.042-50.092c-3.873-11.36-6.454-21.688-9.037-31.759h-0.517
			c-2.582,10.329-5.422,20.915-8.779,31.501l-17.04,50.35H736.186z"/>
		<linearGradient id="SVGID_5_" gradientUnits="userSpaceOnUse" x1="808.998" y1="183.4194" x2="831.4619" y2="183.4194">
			<stop  offset="0" style="stop-color:#FFFFFF"/>
			<stop  offset="1" style="stop-color:#A6A6A6"/>
		</linearGradient>
		<path fill="url(#SVGID_5_)" d="M831.462,96.404v174.031h-22.464V96.404H831.462z"/>
		<linearGradient id="SVGID_6_" gradientUnits="userSpaceOnUse" x1="861.9287" y1="183.291" x2="967.2764" y2="183.291">
			<stop  offset="0" style="stop-color:#FFFFFF"/>
			<stop  offset="1" style="stop-color:#A6A6A6"/>
		</linearGradient>
		<path fill="url(#SVGID_6_)" d="M867.609,243.065c10.069,6.197,24.787,11.361,40.279,11.361c22.98,0,36.407-12.136,36.407-29.694
			c0-16.267-9.296-25.563-32.792-34.599c-28.403-10.07-45.961-24.788-45.961-49.317c0-27.112,22.464-47.252,56.289-47.252
			c17.816,0,30.727,4.131,38.473,8.521l-6.197,18.333c-5.68-3.098-17.3-8.262-33.05-8.262c-23.755,0-32.792,14.202-32.792,26.079
			c0,16.267,10.586,24.271,34.6,33.567c29.436,11.36,44.411,25.562,44.411,51.125c0,26.853-19.882,50.092-60.937,50.092
			c-16.784,0-35.116-4.907-44.411-11.104L867.609,243.065z"/>
	</g>
</g>
</svg>
